<?xml version="1.0" standalone="no"?>
<!DOCTYPE svg PUBLIC "-//W3C//DTD SVG 20010904//EN"
 "http://www.w3.org/TR/2001/REC-SVG-20010904/DTD/svg10.dtd">
<svg version="1.0" xmlns="http://www.w3.org/2000/svg"
 width="374.000000pt" height="371.000000pt" viewBox="0 0 374.000000 371.000000"
 preserveAspectRatio="xMidYMid meet">

<g transform="translate(0.000000,371.000000) scale(0.100000,-0.100000)"
fill="#000000" stroke="none">
<path d="M1735 3694 c-162 -15 -419 -75 -560 -131 -259 -102 -540 -296 -710
-491 -114 -130 -248 -344 -312 -495 -85 -203 -126 -369 -144 -594 -35 -417 85
-865 318 -1193 99 -139 332 -368 460 -453 514 -339 1109 -423 1677 -236 484
159 896 515 1091 944 91 198 160 450 177 644 29 329 -41 672 -202 996 -113
225 -247 396 -438 555 -281 236 -572 371 -937 435 -87 15 -338 27 -420 19z
m775 -294 c15 -56 54 -97 111 -117 27 -10 49 -20 49 -24 0 -3 -18 -11 -40 -18
-59 -18 -106 -63 -119 -116 -14 -54 -26 -58 -35 -10 -9 48 -57 100 -111 121
-52 19 -56 30 -17 39 68 14 102 52 135 148 9 26 15 21 27 -23z m-623 -351 c40
-10 100 -32 135 -49 65 -32 158 -91 157 -100 0 -3 -30 -19 -67 -37 -37 -18
-87 -49 -112 -70 -83 -70 -180 -184 -216 -255 l-35 -70 -27 54 c-77 157 -284
269 -467 254 -88 -7 -188 -37 -238 -72 -21 -14 -40 -24 -43 -22 -6 7 101 136
147 177 211 185 501 257 766 190z m757 -309 c33 -17 51 -28 39 -25 -21 6 -21
4 -11 -27 32 -103 35 -262 3 -274 -7 -3 -34 4 -60 16 -71 32 -151 44 -220 31
-63 -12 -165 -54 -165 -69 0 -5 -10 -12 -21 -15 -14 -4 -20 -11 -16 -21 4 -10
1 -13 -7 -10 -18 7 -78 -66 -72 -88 2 -10 -1 -16 -6 -15 -10 2 -24 -31 -35
-83 -3 -14 -7 -70 -9 -125 l-3 -100 21 48 21 48 36 -34 c161 -155 461 -136
620 39 56 61 96 135 88 164 -3 11 -1 17 4 14 13 -8 40 16 33 28 -4 6 1 6 13
-1 19 -10 19 -13 6 -103 -28 -191 -81 -338 -174 -478 -67 -101 -99 -129 -260
-228 -111 -68 -236 -169 -326 -263 -46 -49 -125 -84 -210 -93 l-53 -5 0 64 0
63 36 12 c46 16 103 66 120 107 15 34 20 177 7 171 -5 -2 -41 -20 -80 -41 -40
-20 -77 -37 -83 -37 -17 0 -13 769 5 854 41 192 177 368 350 455 140 69 295
77 409 21z m106 -60 c0 -6 -9 -2 -20 7 -11 10 -20 19 -20 21 0 1 9 -2 20 -8
11 -6 20 -15 20 -20z m30 -19 c0 -5 9 -12 19 -16 11 -3 22 -12 25 -20 3 -9 0
-12 -10 -8 -7 3 -14 10 -14 15 0 6 -6 8 -14 5 -16 -6 -40 16 -29 26 9 10 23 8
23 -2z m-343 -458 c-20 -2 -52 -2 -70 0 -17 2 0 4 38 4 39 0 53 -2 32 -4z
m-118 -7 c-2 -2 -18 -6 -36 -9 -17 -3 -38 -8 -45 -12 -7 -3 -6 0 3 7 15 12 90
26 78 14z m204 -3 c-7 -2 -21 -2 -30 0 -10 3 -4 5 12 5 17 0 24 -2 18 -5z
m307 -22 c0 -5 -8 -15 -17 -22 -16 -12 -17 -12 -6 2 7 9 10 19 6 22 -3 4 -1 7
5 7 7 0 12 -4 12 -9z m-603 -17 c-3 -3 -12 -4 -19 -1 -8 3 -5 6 6 6 11 1 17
-2 13 -5z m396 -1 c-7 -2 -19 -2 -25 0 -7 3 -2 5 12 5 14 0 19 -2 13 -5z m162
-13 c-3 -5 -12 -10 -18 -10 -7 0 -6 4 3 10 19 12 23 12 15 0z m-108 -6 c-3 -3
-12 -4 -19 -1 -8 3 -5 6 6 6 11 1 17 -2 13 -5z m-2146 -310 c13 -13 45 -32 71
-42 26 -9 48 -20 48 -24 0 -4 -19 -13 -42 -20 -53 -16 -104 -66 -119 -118 -7
-22 -15 -40 -19 -40 -4 0 -13 20 -20 45 -14 52 -59 97 -114 115 -20 6 -36 15
-36 18 0 4 28 21 63 37 64 31 71 41 102 140 5 16 10 9 24 -33 10 -29 29 -64
42 -78z m2707 -380 c17 -60 46 -90 104 -112 62 -23 70 -37 26 -46 -71 -13
-114 -59 -142 -149 -8 -24 -26 -12 -26 17 0 39 -42 89 -98 118 -29 15 -52 30
-52 35 0 4 17 14 38 21 54 19 91 59 108 120 17 59 25 58 42 -4z m-2334 -466
c3 -7 7 -25 10 -40 9 -40 54 -88 103 -109 50 -21 54 -34 16 -42 -57 -11 -97
-49 -117 -110 -19 -60 -29 -65 -41 -20 -13 54 -45 92 -101 119 -29 14 -54 30
-54 34 0 4 19 12 42 19 55 17 95 58 110 115 12 45 25 58 32 34z m2046 -223
c13 -14 43 -32 67 -41 23 -9 43 -20 43 -24 0 -3 -24 -16 -54 -29 -58 -24 -76
-43 -96 -106 -18 -59 -26 -61 -38 -12 -16 61 -43 91 -107 118 -30 12 -55 25
-55 28 0 3 28 20 62 36 63 30 92 66 112 136 6 21 9 17 25 -29 10 -29 28 -64
41 -77z"/>
</g>
</svg>
