<svg version="1.0" xmlns="http://www.w3.org/2000/svg"  width="374.000000pt" height="371.000000pt" viewBox="0 0 374.000000 371.000000"  preserveAspectRatio="xMidYMid meet"> <g transform="translate(0.000000,371.000000) scale(0.100000,-0.100000)" fill="#000000" stroke="none"> <path d="M0 1855 l0 -1855 1870 0 1870 0 0 1855 0 1855 -1870 0 -1870 0 0 -1855z m2086 1829 c529 -68 1008 -350 1311 -771 126 -176 250 -463 305 -709 20 -89 23 -126 23 -369 0 -264 -1 -272 -28 -378 -103 -397 -242 -655 -481 -893 -273 -272 -595 -444 -986 -527 -93 -19 -135 -22 -360 -22 -276 0 -329 6 -527 64 -393 114 -704 320 -959 636 -161 199 -283 460 -340 729 -22 101 -27 156 -31 338 -6 248 3 354 46 521 104 402 349 771 675 1014 387 288 895 427 1352 367z m-1262 -232 c3 -5 -1 -9 -9 -9 -8 0 -12 4 -9 9 3 4 7 8 9 8 2 0 6 -4 9 -8z m-486 -487 c-3 -3 -9 2 -12 12 -6 14 -5 15 5 6 7 -7 10 -15 7 -18z m3182 -2099 c0 -2 -8 -10 -17 -17 -16 -13 -17 -12 -4 4 13 16 21 21 21 13z m-3183 -181 c0 -8 -4 -12 -9 -9 -5 3 -6 10 -3 15 9 13 12 11 12 -6z m3007 -73 c3 -5 -1 -9 -9 -9 -8 0 -12 4 -9 9 3 4 7 8 9 8 2 0 6 -4 9 -8z m-2659 -242 c-3 -5 -12 -10 -18 -10 -7 0 -6 4 3 10 19 12 23 12 15 0z"/> <path d="M1755 3670 c-4 -6 -15 -8 -25 -5 -10 3 -21 1 -25 -5 -3 -5 -12 -10 -18 -10 -7 0 -6 4 3 11 11 8 9 8 -10 3 -14 -4 -38 -9 -55 -10 -45 -3 -47 -3 -42 -11 3 -5 -11 -8 -31 -7 -21 1 -50 -3 -67 -8 -84 -25 -133 -36 -139 -30 -4 3 -6 0 -6 -7 0 -7 -4 -10 -8 -7 -12 7 -82 -15 -77 -24 2 -4 -7 -6 -20 -4 -14 1 -25 -2 -25 -8 0 -6 -6 -8 -14 -5 -8 3 -26 -5 -41 -19 -27 -25 -41 -31 -30 -14 3 5 -7 5 -25 -1 -16 -6 -27 -15 -24 -20 3 -5 -2 -6 -10 -3 -8 3 -23 -3 -33 -13 -11 -11 -25 -17 -33 -15 -8 3 -10 0 -5 -8 6 -10 4 -12 -7 -7 -9 3 -24 -1 -35 -8 -17 -13 -16 -14 7 -8 14 3 22 3 19 -1 -4 -4 -17 -8 -30 -10 -13 -1 -32 -6 -42 -11 -15 -6 -16 -10 -5 -17 9 -7 7 -8 -9 -5 -13 3 -23 1 -23 -5 0 -5 -6 -6 -12 -2 -9 5 -9 2 1 -9 11 -14 11 -20 1 -32 -13 -15 -30 -12 -30 7 0 5 7 8 15 4 8 -3 15 -1 15 4 0 15 -23 12 -49 -6 -18 -13 -20 -18 -10 -25 10 -6 10 -9 2 -9 -6 0 -14 4 -18 10 -3 5 -18 -4 -34 -20 -15 -16 -32 -26 -36 -22 -5 4 -5 -2 -1 -12 6 -17 4 -17 -11 -5 -10 7 -15 10 -11 5 8 -10 -22 -46 -40 -46 -7 0 -10 -4 -7 -10 7 -11 -14 -54 -22 -46 -4 3 -13 0 -22 -7 -14 -11 -15 -10 -2 8 7 11 0 6 -17 -12 -17 -17 -33 -28 -37 -25 -4 4 -5 0 -3 -8 2 -9 -3 -14 -12 -12 -8 2 -12 1 -9 -3 4 -3 -12 -25 -35 -47 -22 -23 -34 -38 -26 -34 9 5 9 2 -2 -7 -10 -8 -15 -17 -11 -20 3 -4 -1 -7 -10 -7 -9 0 -18 -4 -22 -9 -3 -6 3 -8 15 -6 11 2 22 0 25 -5 3 -5 -4 -7 -16 -5 -24 5 -63 -33 -94 -92 -11 -21 -26 -44 -33 -52 -8 -8 -18 -24 -23 -35 -5 -12 -18 -34 -29 -51 -26 -38 -68 -127 -76 -160 -3 -14 -10 -25 -15 -25 -5 0 -8 -3 -7 -8 0 -4 -2 -15 -7 -25 -4 -9 -5 -26 -2 -38 5 -17 3 -18 -10 -7 -15 12 -15 11 -4 -9 9 -18 9 -22 -2 -17 -8 3 -14 -2 -15 -11 -1 -8 -3 -22 -4 -30 -1 -8 -5 -15 -10 -15 -5 0 -4 -9 2 -20 8 -15 8 -18 -3 -15 -8 4 -13 -5 -15 -26 -1 -18 -6 -37 -9 -43 -8 -12 -12 -28 -18 -66 -2 -14 -9 -54 -15 -90 -24 -142 -32 -334 -19 -435 5 -33 11 -85 14 -115 7 -66 24 -112 38 -103 6 4 7 1 1 -8 -10 -16 -12 -79 -3 -73 4 2 9 -17 13 -43 7 -50 46 -166 57 -171 5 -2 6 -9 3 -17 -3 -7 0 -16 7 -21 8 -5 10 -3 4 6 -5 9 -4 11 4 6 6 -4 9 -12 6 -17 -8 -12 17 -79 27 -73 4 3 5 -1 2 -9 -3 -8 0 -18 5 -22 6 -3 9 -11 6 -16 -4 -5 1 -9 9 -9 9 0 15 -6 14 -12 -2 -8 6 -12 22 -10 14 1 20 -1 13 -5 -17 -12 -21 -49 -4 -45 9 2 12 -4 8 -18 -3 -13 0 -23 9 -27 8 -3 14 -11 14 -18 0 -7 10 -23 23 -36 24 -25 42 -58 38 -72 -1 -5 3 -6 8 -3 5 4 13 1 18 -7 4 -7 19 -18 33 -25 l25 -12 -25 5 c-14 3 -19 2 -12 -1 6 -3 10 -9 7 -14 -2 -4 5 -16 17 -26 14 -12 18 -14 13 -4 -8 13 -6 13 8 1 9 -7 15 -17 12 -21 -3 -4 2 -11 11 -14 8 -3 12 -11 8 -17 -4 -8 -3 -9 4 -5 7 4 12 2 12 -4 0 -6 5 -8 11 -5 6 4 9 0 7 -8 -3 -17 94 -113 124 -123 10 -3 18 -11 18 -19 0 -13 38 -42 62 -47 7 -2 21 -11 30 -21 9 -11 21 -16 26 -13 5 3 17 -3 27 -14 10 -11 14 -20 9 -20 -5 0 8 -12 29 -26 21 -14 45 -23 53 -20 8 3 12 2 9 -3 -3 -5 -1 -12 4 -16 5 -3 15 3 21 12 9 15 10 15 4 -6 -4 -16 -3 -21 5 -17 6 4 11 2 11 -3 0 -6 3 -10 8 -9 4 2 23 -7 42 -19 19 -12 47 -25 63 -28 15 -4 27 -12 27 -19 0 -6 5 -4 10 4 8 13 10 13 10 -2 0 -12 5 -15 17 -11 11 5 14 3 8 -6 -6 -10 -3 -11 14 -2 18 10 20 9 14 -6 -6 -16 -5 -16 10 -4 15 12 17 12 11 -2 -6 -17 8 -17 51 -2 l20 8 -20 -16 c-21 -17 -22 -17 28 -21 6 -1 15 -5 18 -9 3 -4 19 -10 34 -13 16 -3 35 -10 42 -15 13 -12 54 -20 92 -19 12 0 28 -3 34 -7 6 -4 20 -8 32 -9 11 -1 49 -8 85 -14 36 -7 76 -14 90 -17 51 -9 272 -10 310 -2 22 5 57 11 77 13 150 14 196 24 186 39 -5 8 -2 8 9 -1 14 -11 18 -10 27 5 6 10 11 12 11 5 0 -14 39 -8 75 11 11 6 25 10 31 9 6 -1 24 4 39 12 16 8 32 13 37 10 4 -3 8 -1 8 5 0 6 6 8 14 5 7 -3 21 2 30 11 9 9 16 13 16 9 0 -3 7 -1 15 6 8 6 19 9 25 5 5 -3 10 -1 10 4 0 6 3 10 8 9 9 -2 60 23 94 45 15 10 33 15 39 11 8 -5 9 -3 4 6 -6 9 -4 12 6 8 18 -7 53 17 45 30 -3 6 2 9 11 8 10 -2 23 3 30 10 15 15 17 28 4 19 -5 -3 -13 0 -17 6 -4 8 -3 9 4 5 7 -4 12 -2 12 4 0 7 5 6 14 -2 8 -7 12 -17 9 -23 -2 -5 4 0 15 12 11 13 25 23 30 23 6 0 19 11 30 25 11 14 22 20 24 14 2 -6 12 0 23 13 20 23 20 23 0 8 -18 -14 -19 -14 -7 2 8 10 20 14 29 11 10 -4 14 -2 10 4 -4 6 6 16 21 22 15 7 43 25 62 40 31 26 33 31 20 47 -12 16 -12 17 0 7 19 -18 33 -16 26 3 -3 9 -2 12 5 9 6 -4 9 0 7 11 -2 14 3 19 22 19 15 1 24 6 22 14 -1 7 2 10 6 7 5 -3 18 4 28 17 19 21 19 21 -1 7 -13 -9 -11 -4 5 12 14 14 28 24 31 22 9 -5 21 27 14 34 -3 3 -5 -1 -5 -8 0 -7 -2 -11 -5 -8 -3 3 -2 13 1 22 5 13 9 14 14 6 8 -14 42 15 48 40 2 8 10 19 19 25 9 7 14 19 10 28 -4 10 -2 14 6 11 19 -7 39 33 28 54 -8 14 -5 18 12 19 12 0 16 -1 10 -4 -7 -3 -13 -9 -13 -15 0 -7 5 -6 14 1 8 7 12 21 8 33 -3 12 -1 19 5 15 13 -8 46 50 37 66 -4 6 -4 9 1 5 10 -10 34 21 35 45 0 9 5 17 12 17 6 0 8 3 5 7 -4 3 0 14 8 23 14 16 14 19 -2 35 -16 17 -16 17 4 11 18 -6 21 -3 19 18 -2 14 1 23 5 20 10 -6 23 41 16 53 -3 5 -1 15 5 23 8 12 8 11 3 -5 -5 -16 -4 -18 7 -7 7 7 13 30 13 52 0 21 3 33 7 27 5 -8 8 -6 8 6 0 10 7 32 16 49 12 22 12 28 2 22 -11 -6 -11 -5 0 9 8 9 12 22 10 29 -3 7 2 19 9 26 8 8 11 23 8 33 -4 10 -2 19 3 19 5 0 8 14 6 32 -2 17 1 37 7 44 6 8 8 26 4 45 -5 20 -3 29 3 25 16 -10 23 256 8 288 -7 15 -6 17 4 11 9 -5 11 -4 6 3 -8 13 -27 150 -28 200 0 20 -6 36 -15 39 -11 5 -12 8 -2 14 10 6 10 11 1 21 -11 13 -23 61 -27 104 -1 11 -4 24 -7 30 -3 5 -11 28 -17 52 -7 23 -16 42 -21 42 -5 0 -7 9 -5 19 2 11 -3 25 -11 31 -7 7 -11 16 -8 21 3 5 0 18 -7 30 -9 17 -13 19 -20 8 -7 -9 -7 -5 -3 14 5 22 3 27 -12 27 -14 0 -16 2 -6 9 11 7 11 9 -2 14 -9 4 -16 12 -16 19 0 9 3 8 10 -2 13 -21 12 -6 -2 25 -6 14 -15 25 -20 25 -5 0 -7 -4 -3 -9 3 -5 1 -12 -4 -16 -10 -6 -7 27 4 45 3 5 -4 14 -15 20 -11 6 -19 16 -18 23 2 7 -1 13 -6 14 -13 2 -28 32 -22 42 3 5 -1 12 -10 15 -8 3 -12 10 -9 16 3 5 -1 10 -10 10 -10 0 -13 -5 -9 -12 6 -10 5 -10 -8 -1 -8 7 -19 9 -23 5 -5 -4 -5 -1 -1 6 4 7 11 10 16 7 12 -7 23 12 15 25 -5 8 -12 7 -23 -2 -15 -11 -15 -11 -4 3 16 21 7 43 -25 58 -15 7 -23 17 -19 26 6 18 -10 30 -20 14 -5 -8 -3 -9 6 -4 9 5 11 4 6 -4 -10 -16 -26 -4 -19 14 3 8 0 15 -7 15 -7 0 -10 7 -7 14 4 11 1 13 -10 9 -10 -4 -14 -2 -10 4 7 12 -26 46 -36 37 -4 -4 -4 3 -2 16 4 18 2 20 -11 9 -12 -10 -13 -9 -9 4 4 8 1 18 -6 23 -7 4 -10 3 -6 -4 5 -6 -1 -8 -14 -5 -12 4 -16 9 -10 12 12 8 -32 54 -61 64 -10 4 -18 14 -18 22 0 9 -4 13 -10 10 -5 -3 -10 1 -10 10 0 9 -9 19 -20 22 -11 3 -18 9 -15 13 3 4 -2 11 -11 14 -10 4 -13 2 -8 -7 3 -6 -5 0 -20 16 -15 15 -33 27 -41 27 -8 0 -15 7 -15 16 0 8 -4 13 -9 9 -5 -3 -13 0 -16 6 -8 13 -110 79 -122 79 -4 0 -1 -5 7 -11 13 -9 13 -10 0 -6 -8 2 -14 11 -14 20 1 9 -3 14 -8 11 -6 -4 -13 -3 -17 2 -10 15 -95 58 -86 45 4 -8 -4 -7 -24 3 -17 9 -31 19 -31 22 0 2 10 -1 23 -7 16 -8 19 -8 11 0 -6 6 -21 14 -34 16 -13 2 -26 8 -29 12 -7 9 -31 16 -31 9 0 -3 7 -12 16 -20 8 -9 11 -16 6 -16 -5 0 -17 12 -27 26 -10 15 -22 23 -31 20 -10 -4 -12 -2 -8 6 5 8 2 9 -9 5 -10 -3 -17 -3 -17 2 0 5 -9 11 -19 14 -15 3 -18 1 -14 -12 4 -12 2 -11 -9 3 -14 18 -32 25 -65 28 -7 1 -13 6 -13 11 0 6 -10 2 -22 -9 -13 -10 -17 -12 -10 -4 19 22 14 32 -9 19 -12 -6 -19 -7 -15 -1 3 5 -9 13 -27 17 -17 3 -45 9 -62 13 -16 3 -49 7 -72 7 -22 0 -39 3 -36 8 2 4 -20 7 -49 8 -29 0 -79 4 -111 8 -31 4 -63 4 -69 0 -7 -5 -15 -3 -19 3 -4 6 -12 7 -18 4 -6 -4 -8 -13 -4 -19 4 -7 0 -7 -10 1 -10 9 -28 11 -49 7 -25 -5 -29 -4 -18 4 9 7 10 11 3 11 -6 0 -15 -5 -18 -10z m159 -21 c-3 -5 -10 -7 -15 -3 -5 3 -7 10 -3 15 3 5 10 7 15 3 5 -3 7 -10 3 -15z m-530 -68 c3 -5 -2 -8 -12 -7 -9 0 -16 -5 -14 -12 2 -10 -2 -10 -20 -1 -32 17 -37 23 -11 15 12 -4 24 -2 28 4 8 12 22 13 29 1z m1009 -6 c9 -21 -9 -27 -24 -8 -10 12 -10 14 -1 9 6 -4 12 -2 12 3 0 16 7 13 13 -4z m-1200 -49 c4 -10 1 -13 -8 -9 -8 3 -12 9 -9 14 7 12 11 11 17 -5z m1431 -44 c3 -5 -1 -9 -9 -9 -8 0 -12 4 -9 9 3 4 7 8 9 8 2 0 6 -4 9 -8z m-121 -15 c4 3 7 1 7 -6 0 -8 7 -11 18 -6 14 5 15 4 5 -6 -15 -15 -17 -33 -3 -24 6 3 7 -1 4 -9 -3 -9 -2 -16 4 -16 6 0 13 6 15 13 4 9 6 9 6 0 1 -6 -3 -15 -9 -18 -5 -3 -10 -11 -10 -16 0 -6 4 -7 10 -4 5 3 7 0 4 -8 -3 -9 9 -23 33 -38 54 -33 96 -53 108 -50 5 2 7 -1 2 -5 -4 -4 1 -17 10 -28 17 -20 17 -20 1 -7 -13 10 -18 10 -18 2 0 -7 -4 -10 -9 -7 -5 3 -14 -1 -21 -10 -7 -8 -19 -13 -26 -10 -7 3 -16 1 -20 -5 -3 -6 -13 -8 -22 -4 -9 3 -13 3 -10 -1 4 -3 0 -13 -8 -21 -8 -8 -12 -19 -9 -24 4 -5 -1 -6 -9 -3 -20 8 -32 -51 -14 -73 10 -14 10 -15 0 -9 -8 5 -21 1 -32 -9 -17 -16 -20 -15 -40 5 -11 11 -20 26 -18 33 2 13 -29 77 -38 77 -3 0 -2 -6 2 -12 5 -9 2 -9 -9 1 -18 15 -23 26 -7 16 6 -3 10 -3 10 2 0 4 -11 13 -25 20 -14 6 -23 7 -19 2 3 -5 1 -9 -5 -9 -5 0 -15 8 -20 18 -6 10 -11 12 -11 4 0 -10 -7 -9 -30 4 -16 10 -27 20 -25 22 3 3 12 -1 21 -9 16 -13 16 -12 5 9 -7 14 -8 22 -1 22 5 0 10 8 10 18 0 13 -2 14 -9 4 -6 -11 -10 -10 -19 1 -9 11 -7 13 9 12 11 -1 25 -8 30 -16 6 -10 9 -10 9 -1 0 6 9 12 21 12 11 0 17 4 14 10 -3 5 0 8 7 5 15 -6 26 1 53 34 12 15 14 21 5 16 -11 -6 -10 -2 3 12 9 11 15 27 12 36 -4 9 2 21 15 30 15 10 19 20 14 29 -6 10 -5 11 8 1 8 -7 18 -10 21 -6z m-926 -3 c-3 -3 -12 -4 -19 -1 -8 3 -5 6 6 6 11 1 17 -2 13 -5z m-122 -13 c11 -5 32 -5 48 0 15 4 25 4 22 0 -2 -5 16 -7 41 -5 30 2 43 0 38 -7 -4 -7 0 -9 13 -5 11 3 39 0 64 -7 25 -8 53 -13 62 -11 9 1 17 -2 17 -6 0 -16 63 -41 74 -30 5 5 14 10 20 10 5 0 2 -6 -9 -13 -16 -13 -15 -14 16 -15 22 0 29 2 20 8 -10 5 -6 8 12 7 15 -1 27 -3 27 -4 0 -1 -12 -9 -27 -18 l-28 -16 27 4 c15 2 25 1 23 -4 -3 -4 12 -20 32 -35 73 -53 103 -87 92 -100 -6 -7 -18 -10 -26 -7 -10 4 -14 2 -10 -4 5 -7 0 -9 -13 -6 -11 3 -17 10 -14 15 4 6 -6 8 -27 4 -21 -4 -27 -3 -15 2 15 7 12 10 -20 20 -22 6 -57 9 -78 7 -26 -2 -35 0 -25 6 10 6 5 8 -16 8 -16 0 -64 2 -105 5 -49 3 -80 0 -89 -7 -12 -10 -13 -9 -7 2 6 10 4 12 -10 7 -23 -6 -70 -16 -104 -21 -42 -6 -141 -41 -134 -47 3 -4 -3 -4 -14 -1 -11 3 -29 0 -39 -6 -15 -10 -13 -10 12 -6 17 2 8 -2 -20 -11 -55 -17 -135 -53 -135 -60 0 -3 5 -2 10 1 6 3 10 4 10 1 0 -3 -10 -10 -21 -17 -17 -9 -20 -8 -14 3 3 7 1 6 -7 -3 -7 -9 -24 -22 -37 -29 -24 -12 -24 -13 -6 -26 10 -8 14 -14 8 -14 -7 0 -15 5 -18 10 -3 6 -11 10 -17 10 -6 0 -9 -3 -6 -6 7 -7 -36 -54 -49 -54 -15 0 -44 -36 -36 -44 5 -4 1 -6 -7 -4 -9 2 -28 -22 -52 -67 -39 -72 -54 -81 -18 -10 16 32 17 35 3 17 -10 -13 -30 -38 -46 -57 -29 -35 -35 -51 -14 -39 8 6 8 3 -1 -9 -8 -9 -19 -15 -25 -14 -6 1 -12 -2 -12 -8 -3 -18 -19 -50 -32 -63 -6 -7 -10 -19 -7 -27 4 -8 1 -15 -6 -15 -7 0 -10 -7 -7 -15 4 -8 0 -27 -8 -42 -13 -24 -15 -25 -16 -8 l0 20 -8 -20 c-5 -11 -6 -24 -4 -28 3 -5 -3 -15 -13 -23 -11 -9 -13 -12 -6 -9 11 6 12 3 3 -13 -6 -11 -8 -28 -4 -38 4 -12 3 -15 -5 -10 -9 5 -12 -6 -12 -39 0 -26 -4 -55 -10 -65 -5 -10 -11 -42 -12 -70 -2 -42 -4 -48 -12 -30 -6 13 -5 52 2 110 28 210 133 414 308 599 35 38 60 72 56 76 -4 5 -1 5 5 1 8 -4 41 14 80 44 94 71 229 135 348 166 168 43 382 36 538 -18 60 -21 87 -19 45 3 -12 6 -25 15 -28 19 -22 29 -172 108 -265 140 -191 66 -462 42 -660 -57 -203 -102 -397 -313 -466 -508 -54 -152 -53 -338 1 -510 18 -53 29 -99 26 -103 -3 -3 -6 2 -6 11 0 10 -3 17 -7 17 -13 0 -45 88 -37 101 4 7 3 9 -4 5 -6 -3 -14 -1 -18 5 -5 8 -3 9 6 4 9 -6 10 -2 5 16 -16 48 -25 95 -25 132 0 22 -5 37 -12 37 -9 0 -9 3 0 12 7 7 12 40 12 78 0 36 7 90 15 120 9 30 17 60 18 65 2 6 11 25 20 43 10 18 15 37 12 42 -3 6 -2 10 4 10 5 0 12 14 16 30 4 17 11 27 17 24 6 -4 8 2 3 17 -4 16 -3 19 3 11 7 -10 12 -9 23 4 8 10 9 15 2 11 -6 -4 -15 -3 -18 3 -4 6 -1 9 6 8 6 -2 14 3 17 11 2 8 0 11 -6 7 -6 -3 -14 -1 -18 6 -4 7 -4 10 1 6 4 -4 15 -2 23 5 13 9 14 9 8 0 -10 -18 2 -16 20 2 9 8 12 15 8 15 -4 0 8 14 27 31 19 18 27 28 19 24 -8 -4 -4 3 10 16 13 13 28 23 33 21 4 -1 7 6 5 15 -2 10 3 18 10 19 6 1 17 2 24 3 6 0 9 4 5 7 -3 3 7 17 24 31 16 14 26 29 23 35 -4 6 3 5 15 -1 22 -12 28 -2 10 16 -8 8 -7 13 2 18 7 5 10 4 5 -3 -8 -13 14 -28 23 -16 3 5 19 15 35 22 21 10 26 16 17 21 -10 6 -9 10 4 14 9 4 13 3 10 -3 -10 -16 12 -12 46 9 20 12 26 21 18 24 -8 2 -2 2 14 0 15 -3 27 0 27 6 0 6 8 11 18 11 9 0 30 7 45 15 15 8 34 12 42 8 8 -3 15 0 15 6 0 6 17 11 38 12 20 0 62 7 92 14 69 15 62 15 85 6z m1293 -17 c2 -1 -7 -8 -20 -15 -20 -11 -21 -10 -11 3 10 11 10 17 0 28 -10 11 -8 11 8 0 11 -8 22 -15 23 -16z m-1738 -24 c0 -5 -2 -10 -4 -10 -3 0 -8 5 -11 10 -3 6 -1 10 4 10 6 0 11 -4 11 -10z m1761 -7 c13 -16 12 -17 -3 -4 -10 7 -18 15 -18 17 0 8 8 3 21 -13z m-1781 -12 c0 -5 -7 -12 -16 -15 -14 -5 -15 -4 -4 9 14 17 20 19 20 6z m55 -20 c3 -5 2 -12 -3 -15 -5 -3 -9 1 -9 9 0 17 3 19 12 6z m1851 -47 c1 -9 0 -13 -4 -10 -3 4 -7 14 -8 22 -1 9 0 13 4 10 3 -4 7 -14 8 -22z m-269 -6 c-3 -8 -6 -5 -6 6 -1 11 2 17 5 13 3 -3 4 -12 1 -19z m-1160 -14 c-3 -3 -12 -4 -19 -1 -8 3 -5 6 6 6 11 1 17 -2 13 -5z m1228 -4 c3 -6 -1 -7 -9 -4 -18 7 -21 14 -7 14 6 0 13 -4 16 -10z m-1673 -22 c-9 -9 -9 -15 1 -26 10 -13 9 -14 -10 -2 -20 13 -20 15 -5 27 21 16 30 17 14 1z m1782 -60 c-2 -3 6 -9 18 -13 33 -9 110 -48 126 -63 29 -26 51 -33 75 -22 21 11 21 10 3 -4 -18 -15 -15 -21 7 -17 5 1 6 -3 3 -8 -5 -8 0 -12 29 -22 6 -2 28 -23 49 -46 23 -25 46 -41 53 -38 8 2 12 1 9 -4 -3 -5 9 -24 26 -42 18 -19 32 -38 33 -44 0 -5 6 -10 13 -10 7 0 21 -15 32 -33 12 -19 15 -31 8 -27 -7 4 -4 0 6 -9 10 -8 23 -13 28 -9 6 3 5 -5 -2 -17 -7 -13 -8 -25 -3 -29 13 -9 42 -74 50 -113 l7 -33 6 30 6 30 5 -32 c3 -18 2 -30 -3 -27 -11 7 -10 -5 7 -81 11 -46 13 -71 6 -83 -9 -14 -10 -11 -11 16 0 58 -31 174 -66 250 -69 151 -180 277 -332 378 -84 55 -179 104 -204 104 -8 0 -19 5 -26 12 -6 6 -15 9 -18 5 -4 -4 15 -31 42 -60 69 -75 118 -141 112 -151 -2 -3 4 -11 14 -18 19 -15 89 -144 119 -221 40 -101 117 -333 130 -392 21 -93 18 -396 -5 -520 -17 -97 -42 -161 -30 -79 3 21 6 46 6 54 0 8 2 22 5 30 27 71 35 361 14 490 -1 3 -5 0 -9 -7 -4 -7 -7 9 -7 35 1 45 -51 223 -68 230 -4 2 -5 8 -2 12 3 5 1 17 -4 27 -5 10 -24 57 -43 104 -24 65 -36 86 -48 82 -12 -4 -12 -3 -1 5 11 8 9 17 -11 51 -19 31 -27 38 -36 29 -9 -9 -12 -9 -12 0 0 7 5 12 10 12 12 0 14 27 3 32 -5 2 -27 29 -51 61 -27 36 -47 55 -55 50 -9 -5 -9 -3 0 9 11 12 7 20 -22 47 -42 38 -69 77 -61 89 3 5 21 8 40 8 19 -1 32 -4 30 -8z m-1564 -12 c0 -2 -7 -7 -16 -10 -8 -3 -12 -2 -9 4 6 10 25 14 25 6z m1090 -26 c-6 -11 -13 -20 -16 -20 -2 0 0 9 6 20 6 11 13 20 16 20 2 0 0 -9 -6 -20z m281 -7 c13 -16 12 -17 -3 -4 -14 11 -18 11 -18 1 0 -8 -3 -11 -6 -7 -5 5 3 27 10 27 2 0 10 -8 17 -17z m-1735 -29 c1 -9 0 -13 -4 -10 -3 4 -7 14 -8 22 -1 9 0 13 4 10 3 -4 7 -14 8 -22z m-126 0 c0 -8 -19 -13 -24 -6 -3 5 1 9 9 9 8 0 15 -2 15 -3z m-180 -37 c0 -2 -10 -12 -22 -23 l-23 -19 19 23 c18 21 26 27 26 19z m1846 -17 c0 -12 -4 -16 -9 -11 -5 5 -6 14 -3 20 10 15 12 14 12 -9z m-1361 1 c3 -5 2 -12 -3 -15 -5 -3 -9 1 -9 9 0 17 3 19 12 6z m780 -5 c61 -17 96 -23 126 -21 19 1 28 0 22 -2 -7 -3 -13 -9 -13 -14 0 -6 4 -8 9 -4 5 3 13 0 16 -6 4 -5 13 -8 21 -5 8 3 14 1 14 -5 0 -5 12 -15 28 -22 15 -6 33 -17 40 -24 17 -17 35 -17 26 0 -4 6 4 2 17 -9 13 -12 31 -19 39 -17 12 4 13 3 1 -5 -16 -11 -6 -32 15 -32 18 0 18 -15 -1 -34 -8 -8 -15 -21 -15 -28 0 -10 -3 -9 -10 2 -9 13 -14 7 -11 -12 0 -4 -5 -5 -12 -3 -19 7 -122 -50 -121 -67 1 -8 -7 -14 -19 -14 -11 1 -22 -6 -25 -14 -5 -13 -3 -13 14 0 17 14 18 14 6 -2 -8 -10 -20 -14 -30 -11 -15 6 -15 5 -3 -11 18 -21 1 -37 -32 -28 -15 4 -18 2 -12 -8 5 -9 4 -11 -3 -6 -7 4 -12 2 -12 -3 0 -6 -13 -23 -30 -37 -16 -15 -27 -31 -24 -35 3 -5 -2 -12 -10 -15 -9 -3 -13 -11 -9 -17 4 -6 1 -7 -7 -2 -10 6 -12 4 -6 -11 4 -10 4 -15 1 -12 -4 4 -20 -18 -36 -49 -32 -60 -34 -67 -19 -58 6 3 10 1 10 -4 0 -6 -6 -11 -14 -11 -8 0 -17 -15 -20 -34 -4 -19 -11 -36 -16 -38 -5 -2 -11 -26 -14 -55 -6 -66 -25 -106 -26 -53 0 58 27 143 81 257 47 99 60 116 158 214 85 85 120 112 178 140 40 19 72 37 72 40 1 8 -92 70 -145 97 -63 32 -161 60 -254 72 -239 32 -512 -62 -685 -235 -107 -105 -201 -253 -247 -385 -24 -69 -48 -181 -48 -224 0 -18 -7 -41 -16 -52 -14 -18 -15 -16 -9 26 4 25 9 68 12 95 3 28 10 55 15 62 5 7 7 22 3 34 -4 12 -3 19 2 16 5 -3 13 10 19 29 9 28 9 34 -2 30 -7 -3 1 15 17 39 16 23 29 49 29 57 0 8 7 23 15 34 18 24 19 38 3 28 -7 -4 -10 -4 -6 0 3 4 9 7 13 6 15 -3 77 84 67 95 -4 5 -1 5 7 0 11 -6 13 -2 9 17 -3 16 0 25 8 25 7 0 10 -5 7 -11 -4 -7 -1 -7 6 0 10 9 10 17 1 35 -10 21 -10 22 3 7 13 -17 15 -16 33 4 14 16 14 19 2 10 -12 -10 -18 -10 -24 -1 -4 7 -3 9 3 6 6 -4 16 0 23 8 7 8 16 13 20 10 7 -4 18 13 25 38 2 4 4 10 5 15 1 4 2 10 1 14 0 4 6 5 14 1 13 -5 13 -7 -2 -20 -24 -19 5 -4 39 20 15 11 25 24 22 29 -3 5 -2 7 3 6 4 -1 18 2 31 6 18 6 21 11 11 22 -6 7 -16 11 -21 8 -6 -4 -5 -10 3 -15 10 -6 10 -9 2 -9 -19 0 -24 17 -9 29 10 8 16 9 21 1 3 -5 11 -10 16 -10 6 0 8 4 5 9 -4 5 2 7 12 4 10 -2 24 3 31 11 8 9 21 16 30 16 9 0 25 6 36 13 22 15 63 28 175 56 57 14 103 18 190 16 63 -2 124 -6 135 -9z m1085 9 c0 -2 -10 -9 -22 -15 -22 -11 -22 -10 -4 4 21 17 26 19 26 11z m227 -1 c-3 -3 -12 -4 -19 -1 -8 3 -5 6 6 6 11 1 17 -2 13 -5z m-2121 -36 c5 -7 3 -8 -5 -4 -7 5 -22 0 -34 -11 l-22 -18 19 23 c21 25 32 27 42 10z m89 -8 c-3 -5 -12 -10 -18 -10 -7 0 -6 4 3 10 19 12 23 12 15 0z m938 -15 c-3 -9 -8 -14 -10 -11 -3 3 -2 9 2 15 9 16 15 13 8 -4z m-1283 -9 c0 -2 -8 -10 -17 -17 -16 -13 -17 -12 -4 4 13 16 21 21 21 13z m2477 -18 c-3 -8 -6 -5 -6 6 -1 11 2 17 5 13 3 -3 4 -12 1 -19z m-1752 -8 c3 -6 -1 -7 -9 -4 -18 7 -21 14 -7 14 6 0 13 -4 16 -10z m691 -22 c-10 -6 -22 -6 -26 -2 -5 5 3 10 18 11 22 1 24 0 8 -9z m247 5 c-7 -2 -19 -2 -25 0 -7 3 -2 5 12 5 14 0 19 -2 13 -5z m533 -13 c0 -12 -4 -16 -9 -11 -5 5 -6 14 -3 20 10 15 12 14 12 -9z m-1631 0 c-3 -5 2 -10 11 -10 10 0 15 -3 11 -6 -3 -3 -15 -3 -28 1 -17 6 -19 9 -8 16 18 11 22 11 14 -1z m679 -2 c-5 -8 -1 -9 12 -4 14 5 16 4 7 -5 -13 -13 -37 -3 -28 12 4 5 8 9 11 9 3 0 2 -5 -2 -12z m406 -13 c11 -13 10 -14 -4 -9 -9 3 -16 10 -16 15 0 13 6 11 20 -6z m-1956 -26 c3 -3 -5 -5 -19 -5 -13 0 -22 3 -19 7 4 8 30 6 38 -2z m1619 -4 c-3 -9 -8 -14 -10 -11 -3 3 -2 9 2 15 9 16 15 13 8 -4z m1275 -20 c-3 -3 -9 2 -12 12 -6 14 -5 15 5 6 7 -7 10 -15 7 -18z m-2478 -1 c0 -8 -19 -13 -24 -6 -3 5 1 9 9 9 8 0 15 -2 15 -3z m-300 -41 c-11 -17 -11 -17 -6 0 3 10 6 24 7 30 0 9 2 9 5 0 3 -7 0 -20 -6 -30z m676 0 c-3 -18 -33 -26 -42 -12 -4 6 -10 6 -18 0 -8 -7 -12 -5 -13 9 -1 11 2 22 8 25 5 3 6 -1 3 -9 -4 -10 0 -14 13 -12 10 2 19 8 19 14 3 23 4 24 18 13 8 -7 13 -19 12 -28z m-412 19 c3 -5 -1 -9 -9 -9 -8 0 -12 4 -9 9 3 4 7 8 9 8 2 0 6 -4 9 -8z m1216 -7 c0 -2 -6 -5 -13 -8 -8 -3 -14 1 -14 8 0 7 6 11 14 8 7 -3 13 -6 13 -8z m-1696 -14 c3 -5 -1 -11 -9 -14 -9 -4 -12 -1 -8 9 6 16 10 17 17 5z m590 -17 c3 -8 2 -12 -4 -9 -6 3 -10 10 -10 16 0 14 7 11 14 -7z m203 1 c0 -8 -4 -12 -9 -9 -5 3 -6 10 -3 15 9 13 12 11 12 -6z m-807 -41 c0 -19 16 -18 24 2 11 29 20 5 21 -57 1 -43 -3 -63 -14 -71 -13 -10 -14 -10 -3 2 18 20 15 33 -5 21 -26 -14 -56 15 -42 40 5 11 6 19 2 19 -4 0 -2 4 5 8 9 6 10 15 3 33 -5 13 -10 19 -10 13 -1 -7 -9 -15 -18 -18 -15 -6 -15 -5 1 13 20 22 36 19 36 -5z m1628 17 c11 -7 10 -9 -3 -14 -9 -4 -13 -3 -10 2 3 5 -3 12 -12 14 -13 3 -14 5 -3 6 8 0 21 -3 28 -8z m-611 -15 c0 -8 -6 -12 -15 -9 -11 5 -11 7 0 14 7 5 13 9 14 9 0 0 1 -6 1 -14z m1123 0 c25 -4 53 -9 64 -12 12 -4 16 -2 12 5 -8 12 99 -32 120 -50 7 -6 19 -7 25 -3 8 5 9 3 4 -6 -5 -8 -3 -11 6 -8 8 3 24 -6 37 -19 12 -13 22 -22 22 -20 0 3 23 -16 50 -42 28 -26 50 -52 50 -59 0 -7 6 -11 13 -10 6 2 11 -3 9 -9 -1 -7 2 -13 7 -13 5 0 14 -13 20 -30 5 -16 15 -30 20 -30 7 0 7 -8 1 -24 -9 -25 -7 -117 4 -135 4 -5 2 -12 -4 -16 -6 -4 -8 -9 -6 -13 2 -4 1 -28 -4 -54 -4 -33 -3 -48 4 -48 7 0 7 -3 0 -8 -12 -7 -31 -121 -33 -200 -1 -15 -5 -21 -13 -16 -8 5 -9 0 -6 -14 4 -12 2 -22 -3 -22 -5 0 -9 -13 -9 -30 0 -16 -4 -30 -10 -30 -5 0 -9 -3 -8 -7 2 -11 -9 -39 -49 -118 -51 -102 -66 -129 -89 -153 -12 -13 -26 -40 -33 -62 -6 -22 -28 -75 -48 -117 -20 -43 -36 -83 -36 -90 0 -7 -3 -13 -6 -13 -4 0 -13 -20 -20 -45 -7 -25 -17 -45 -22 -45 -5 0 -6 -8 -3 -17 4 -13 3 -14 -3 -6 -6 9 -13 2 -22 -25 -7 -20 -23 -53 -35 -72 -56 -88 -57 -89 -46 -113 11 -21 10 -21 -4 -3 -13 16 -16 17 -16 4 0 -8 -9 -23 -20 -33 -11 -10 -20 -24 -20 -31 0 -7 -9 -18 -20 -24 -10 -6 -18 -16 -16 -23 1 -6 1 -9 -2 -4 -4 7 -39 -40 -62 -83 -9 -17 -8 -25 4 -39 14 -15 14 -18 2 -18 -8 0 -14 5 -13 10 4 17 -31 15 -48 -3 -15 -17 -11 -50 6 -50 5 0 9 -6 9 -12 -1 -7 -10 -2 -21 11 -11 13 -22 21 -26 17 -3 -3 1 -14 11 -25 14 -15 14 -19 3 -24 -9 -3 -14 1 -13 10 0 9 -5 18 -11 20 -7 3 -13 -2 -13 -11 0 -9 -3 -15 -7 -14 -5 2 -25 -10 -46 -26 -29 -22 -35 -31 -25 -39 10 -7 9 -8 -3 -4 -9 3 -32 -5 -52 -18 -19 -13 -47 -27 -63 -31 -21 -4 -11 5 33 32 76 47 125 87 194 159 29 30 57 51 62 48 6 -3 7 -1 3 6 -4 7 9 31 32 59 21 26 46 59 56 73 19 31 12 61 -12 51 -15 -5 -15 -4 1 12 10 11 15 26 12 36 -9 27 12 34 25 9 7 -12 8 -19 3 -16 -5 4 -10 -7 -10 -23 0 -22 4 -27 12 -20 7 5 16 6 20 2 5 -4 5 -1 1 6 -4 7 3 29 16 50 36 58 55 92 93 164 39 76 155 341 160 368 2 10 22 45 44 77 123 181 189 411 198 695 4 124 4 129 -23 178 -35 64 -135 159 -198 189 -27 12 -51 20 -54 17 -2 -3 3 -8 12 -12 9 -3 13 -10 10 -15 -3 -5 0 -9 6 -9 6 0 9 -4 5 -9 -3 -5 -1 -12 4 -15 5 -3 12 -22 15 -41 4 -19 12 -35 19 -35 9 0 9 -2 1 -8 -6 -4 -12 -29 -12 -57 -1 -37 1 -46 9 -35 10 15 9 6 -8 -54 -9 -31 -37 -55 -61 -53 -12 1 -22 4 -22 8 0 6 -33 20 -55 23 -5 1 -16 5 -24 10 -18 11 -183 18 -177 7 3 -4 -8 -8 -25 -9 -16 0 -37 -9 -47 -19 -9 -11 -13 -13 -8 -6 13 19 -2 16 -35 -8 -26 -18 -28 -23 -17 -37 11 -15 11 -15 -4 -4 -10 8 -19 9 -22 3 -3 -5 0 -12 6 -15 7 -3 3 -3 -9 -1 -12 3 -25 0 -29 -6 -5 -8 -3 -9 6 -4 9 5 11 4 6 -3 -4 -7 -14 -12 -22 -12 -8 0 -14 -6 -14 -13 0 -8 -9 -22 -20 -32 -12 -10 -18 -25 -15 -32 2 -8 1 -11 -4 -8 -13 8 -19 -5 -25 -56 -8 -62 -16 -101 -23 -112 -4 -6 0 -8 9 -5 8 4 15 0 15 -8 0 -7 -4 -11 -8 -9 -4 3 -9 -2 -12 -10 -4 -9 -1 -12 9 -8 17 6 17 3 0 -44 -19 -50 -31 -124 -17 -103 9 12 11 11 11 -7 0 -13 -3 -23 -7 -23 -5 0 -8 -74 -8 -164 0 -90 3 -162 8 -159 4 2 7 -3 7 -12 0 -8 -7 -18 -15 -21 -11 -5 -15 -22 -15 -64 0 -32 -3 -72 -7 -91 -8 -44 -77 -111 -130 -128 l-43 -14 0 -64 0 -63 41 0 c22 0 74 11 114 25 58 20 90 25 144 23 l71 -3 -31 -60 c-16 -33 -44 -75 -62 -93 -41 -43 -138 -89 -204 -98 -112 -14 -277 43 -337 118 -15 18 -30 38 -35 44 -5 6 -18 29 -30 52 l-21 41 58 -6 c69 -7 80 -13 24 -13 -23 0 -42 -4 -42 -9 0 -16 43 -85 64 -104 55 -48 102 -78 116 -74 9 2 21 -2 27 -9 19 -19 132 -28 197 -14 61 12 141 52 129 64 -4 4 1 4 11 0 13 -5 17 -4 12 4 -3 6 3 13 14 17 12 4 17 11 14 18 -4 7 -4 9 1 5 8 -8 40 36 56 79 8 22 7 23 -44 22 -29 -1 -86 -12 -127 -25 -84 -25 -160 -36 -160 -22 0 5 -4 7 -8 4 -14 -8 -7 141 7 157 7 9 22 17 34 19 13 2 21 9 19 17 -3 12 0 12 14 0 15 -12 17 -12 9 0 -6 11 -4 13 7 9 10 -4 22 8 39 38 13 24 26 44 29 44 11 0 7 85 -4 92 -6 4 -19 -2 -29 -15 -10 -12 -15 -16 -11 -8 4 9 2 12 -7 9 -8 -3 -13 -9 -12 -14 2 -11 -87 -12 -103 -1 -10 6 -15 108 -18 347 -1 36 13 434 18 517 0 11 5 19 10 15 5 -3 7 2 3 11 -3 9 -2 19 4 22 5 4 7 11 3 16 -3 5 -2 15 3 22 5 7 9 24 8 38 -1 20 3 25 14 21 9 -3 12 -1 8 5 -4 6 -3 13 2 15 5 1 11 9 13 17 2 8 11 23 21 33 11 12 16 27 13 41 -3 12 -3 16 0 10 9 -21 21 -15 33 18 7 19 15 28 22 23 8 -4 9 -3 5 4 -4 7 -3 12 3 12 6 0 7 8 4 18 -6 14 -4 15 8 6 11 -9 17 -9 27 2 7 8 10 14 7 14 -4 0 1 7 9 16 9 8 13 20 10 26 -4 7 -2 8 5 4 6 -4 8 -13 4 -19 -4 -7 1 -6 11 2 13 11 14 16 4 23 -10 7 -10 8 2 7 23 -3 53 12 79 40 13 14 20 20 17 14 -4 -7 -2 -13 4 -13 6 0 13 7 17 16 3 8 12 13 19 10 8 -3 14 1 14 11 0 12 3 13 14 4 8 -7 17 -8 20 -3 7 12 62 25 96 23 25 -1 25 -1 3 9 -13 5 -23 11 -23 12 0 4 70 1 120 -6z m-423 -11 c0 -8 -4 -12 -9 -9 -5 3 -6 10 -3 15 9 13 12 11 12 -6z m-968 -21 c-14 -18 -24 -11 -15 11 3 9 11 13 16 10 8 -5 7 -11 -1 -21z m951 -4 c6 -11 8 -20 6 -20 -3 0 -10 9 -16 20 -6 11 -8 20 -6 20 3 0 10 -9 16 -20z m-646 -5 c80 -21 159 -62 214 -110 47 -41 122 -147 122 -172 0 -24 -22 -2 -41 43 -25 54 -101 130 -156 156 -24 10 -43 24 -43 30 0 6 -3 9 -6 5 -4 -3 -23 2 -43 12 -38 20 -118 34 -185 33 -52 -1 -177 -32 -171 -42 3 -5 -4 -6 -15 -3 -12 3 -20 0 -20 -8 0 -7 -3 -9 -7 -6 -3 4 -13 -2 -20 -13 -8 -11 -18 -18 -23 -15 -4 3 -10 -1 -13 -7 -2 -7 -8 -10 -12 -6 -13 13 15 37 79 67 104 50 233 64 340 36z m191 -25 c3 -6 -1 -7 -9 -4 -18 7 -21 14 -7 14 6 0 13 -4 16 -10z m295 -20 c0 -5 -5 -10 -11 -10 -5 0 -7 5 -4 10 3 6 8 10 11 10 2 0 4 -4 4 -10z m1600 -4 c0 -2 -7 -9 -15 -16 -13 -11 -14 -10 -9 4 5 14 24 23 24 12z m-2020 -10 c0 -2 -7 -7 -16 -10 -8 -3 -12 -2 -9 4 6 10 25 14 25 6z m395 -6 c3 -6 -1 -7 -9 -4 -18 7 -21 14 -7 14 6 0 13 -4 16 -10z m-188 -45 c-8 -9 -14 -10 -19 -2 -9 16 0 27 17 21 11 -5 12 -9 2 -19z m1061 -6 c-3 -8 -7 -3 -11 10 -4 17 -3 21 5 13 5 -5 8 -16 6 -23z m359 9 c-3 -8 -6 -5 -6 6 -1 11 2 17 5 13 3 -3 4 -12 1 -19z m-1276 -5 c13 -16 12 -17 -3 -4 -17 13 -22 21 -14 21 2 0 10 -8 17 -17z m225 -13 c0 -12 -4 -16 -9 -11 -5 5 -6 14 -3 20 10 15 12 14 12 -9z m-1809 -19 c-1 -13 -6 -17 -17 -13 -13 5 -13 4 0 -14 14 -18 14 -18 -3 -5 -18 14 -18 16 -2 27 10 7 14 18 9 25 -4 7 -3 10 4 5 6 -3 10 -15 9 -25z m2526 14 c-3 -9 -8 -14 -10 -11 -3 3 -2 9 2 15 9 16 15 13 8 -4z m-2236 -37 c-3 -7 -5 -2 -5 12 0 14 2 19 5 13 2 -7 2 -19 0 -25z m2883 -13 c0 -8 -2 -15 -4 -15 -2 0 -6 7 -10 15 -3 8 -1 15 4 15 6 0 10 -7 10 -15z m-2557 -30 c-3 -9 -8 -14 -10 -11 -3 3 -2 9 2 15 9 16 15 13 8 -4z m906 -17 c-5 -10 -11 -18 -12 -18 -2 0 -3 8 -3 18 0 10 6 19 13 19 8 0 9 -6 2 -19z m81 -2 c0 -2 -8 -10 -17 -17 -16 -13 -17 -12 -4 4 13 16 21 21 21 13z m1585 -85 c-3 -11 -1 -22 5 -26 5 -3 10 -11 10 -18 0 -6 -7 -2 -15 10 -8 12 -12 28 -9 37 9 23 17 20 9 -3z m-453 -31 c5 -35 -7 -41 -16 -7 -8 32 -7 49 3 43 5 -3 11 -19 13 -36z m425 -97 c-3 -60 -8 -119 -11 -133 -3 -14 -9 -38 -12 -54 -4 -17 -26 -71 -49 -122 -52 -112 -62 -139 -45 -129 6 4 -1 -12 -16 -36 -15 -24 -27 -50 -27 -56 0 -7 -7 -13 -14 -13 -8 0 -11 -4 -8 -10 3 -5 1 -10 -4 -10 -6 0 -11 -6 -11 -14 0 -8 -7 -16 -15 -20 -8 -3 -15 -15 -15 -26 0 -12 -4 -19 -9 -16 -5 4 -12 0 -14 -6 -4 -9 -6 -7 -6 3 -1 9 7 27 17 40 50 65 106 154 108 173 1 11 20 73 42 136 52 147 73 234 74 318 0 37 3 70 5 75 12 21 15 -3 10 -100z m210 85 c-3 -8 -6 -5 -6 6 -1 11 2 17 5 13 3 -3 4 -12 1 -19z m-2057 2 c0 -5 -4 -10 -10 -10 -5 0 -10 5 -10 10 0 6 5 10 10 10 6 0 10 -4 10 -10z m-94 -24 c86 -27 224 -131 224 -169 0 -7 -14 3 -31 21 -36 38 -105 76 -121 66 -7 -5 -8 -3 -4 5 5 7 14 10 22 7 8 -3 14 -3 14 0 0 8 -73 37 -95 38 -11 1 -19 7 -17 14 1 8 -2 11 -8 7 -6 -4 -26 -1 -46 5 -37 12 -152 15 -194 5 -14 -4 -34 -8 -45 -10 -11 -2 -22 -4 -25 -4 -3 -1 2 -6 10 -11 9 -6 10 -10 3 -10 -6 0 -14 4 -18 10 -6 10 -28 4 -64 -19 -13 -8 -30 -16 -37 -17 -19 -3 -44 -30 -36 -39 4 -5 0 -6 -10 -2 -23 8 -94 -53 -76 -65 9 -6 6 -7 -9 -3 -12 3 -25 1 -29 -6 -5 -8 -3 -10 7 -4 8 5 11 4 6 -1 -5 -5 -11 -7 -14 -6 -3 2 -18 -9 -34 -24 -18 -17 -29 -22 -29 -14 0 16 77 90 136 130 61 43 154 88 215 105 68 19 233 14 305 -9z m-1302 -2 c3 -8 2 -12 -4 -9 -6 3 -10 10 -10 16 0 14 7 11 14 -7z m1712 -4 c0 -12 -4 -16 -9 -11 -5 5 -6 14 -3 20 10 15 12 14 12 -9z m-1728 -25 c-3 -3 -9 2 -12 12 -6 14 -5 15 5 6 7 -7 10 -15 7 -18z m2856 -32 c8 -76 8 -292 0 -368 -3 -33 -7 -68 -7 -77 -2 -31 -17 -20 -17 12 0 17 5 30 12 30 8 0 9 3 1 11 -6 6 -7 25 -2 52 9 49 5 342 -6 375 -4 13 -3 22 3 22 5 0 12 -26 16 -57z m-1376 11 c8 -2 17 -5 20 -8 3 -4 -4 -5 -16 -3 -12 2 -28 9 -35 17 -10 10 -9 11 3 4 8 -5 21 -9 28 -10z m43 -7 c-10 -9 -11 -8 -5 6 3 10 9 15 12 12 3 -3 0 -11 -7 -18z m-766 4 c3 -5 2 -12 -3 -15 -5 -3 -9 1 -9 9 0 17 3 19 12 6z m2532 -23 c-3 -8 -6 -5 -6 6 -1 11 2 17 5 13 3 -3 4 -12 1 -19z m-1762 -26 c-3 -3 -11 0 -18 7 -9 10 -8 11 6 5 10 -3 15 -9 12 -12z m1952 -4 c-3 -8 -6 -5 -6 6 -1 11 2 17 5 13 3 -3 4 -12 1 -19z m-2747 -11 c0 -2 -10 -12 -22 -23 l-23 -19 19 23 c18 21 26 27 26 19z m2437 -19 c-3 -8 -6 -5 -6 6 -1 11 2 17 5 13 3 -3 4 -12 1 -19z m-425 -23 c-17 -14 -33 -39 -37 -55 -10 -45 -100 -157 -158 -195 -163 -108 -386 -105 -527 6 -28 22 -50 44 -50 50 0 21 98 106 153 133 53 27 63 28 154 24 80 -4 109 -10 157 -33 43 -20 80 -29 130 -32 82 -5 119 10 125 47 3 25 52 80 72 80 6 0 -3 -11 -19 -25z m-1942 11 c0 -3 -4 -8 -10 -11 -5 -3 -10 -1 -10 4 0 6 5 11 10 11 6 0 10 -2 10 -4z m-186 -76 c-6 -6 -10 -3 -10 10 0 13 4 16 10 10 7 -7 7 -13 0 -20z m1883 4 c-3 -3 -12 -4 -19 -1 -8 3 -5 6 6 6 11 1 17 -2 13 -5z m-462 -14 c-3 -5 -12 -10 -18 -10 -7 0 -6 4 3 10 19 12 23 12 15 0z m1223 -35 c-6 -14 -13 -24 -14 -22 -6 6 9 47 17 47 5 0 3 -11 -3 -25z m-1258 -15 c0 -5 -2 -10 -4 -10 -3 0 -8 5 -11 10 -3 6 -1 10 4 10 6 0 11 -4 11 -10z m1455 -36 c-50 -118 -168 -297 -213 -323 -9 -6 -14 -11 -11 -11 7 0 -71 -80 -117 -120 -16 -14 -71 -56 -121 -94 -51 -38 -93 -73 -93 -77 0 -17 -142 -313 -191 -399 -18 -30 -63 -101 -101 -157 -39 -57 -66 -107 -63 -114 6 -8 9 -8 15 1 5 8 9 7 13 -5 5 -11 3 -14 -5 -9 -8 5 -9 1 -5 -12 6 -15 3 -13 -11 5 l-19 24 -19 -27 c-10 -14 -29 -39 -42 -54 -12 -15 -37 -47 -55 -71 -51 -71 -295 -312 -367 -363 -82 -58 -196 -121 -211 -116 -6 2 9 14 33 26 54 26 90 56 81 66 -4 4 0 4 10 1 14 -6 40 6 101 47 7 5 4 13 -9 23 -20 16 -20 16 2 5 18 -8 27 -6 48 12 19 16 22 24 13 31 -9 6 -7 7 6 3 27 -9 177 141 155 155 -11 8 -9 9 6 5 14 -4 27 3 45 26 14 18 32 39 40 48 47 50 95 117 95 135 0 11 7 20 15 20 26 1 43 16 31 28 -6 6 -11 16 -11 21 0 7 3 6 8 -1 5 -7 31 23 72 83 36 52 70 101 77 108 22 24 77 141 75 156 -2 12 -1 12 6 2 7 -11 10 -10 16 3 3 9 3 22 -1 27 -4 7 -1 8 7 3 10 -6 12 -4 7 9 -4 10 -3 15 3 11 6 -3 10 1 10 9 0 9 9 31 19 49 27 48 37 68 52 102 7 17 15 35 18 40 2 6 -4 3 -14 -5 -18 -14 -18 -13 0 12 11 15 23 28 27 28 4 0 5 7 2 15 -6 14 -8 13 -21 -2 -13 -17 -14 -17 -4 2 5 11 18 20 28 20 10 0 18 5 18 12 0 6 4 15 9 20 5 5 6 3 2 -4 -4 -7 -4 -13 -1 -13 7 0 63 39 90 64 11 10 30 25 43 34 18 12 20 17 10 24 -9 7 -8 8 6 4 13 -5 30 5 57 33 21 21 40 37 42 34 9 -8 68 77 61 88 -4 7 -3 9 3 6 13 -8 69 54 65 73 -2 11 0 11 5 3 6 -8 18 3 38 35 16 26 32 49 35 52 23 19 38 55 29 66 -12 14 -3 38 11 29 5 -3 12 5 15 17 9 30 35 71 41 65 3 -2 -2 -22 -11 -43z m50 -44 c-4 -26 -3 -31 4 -20 9 13 11 13 11 -2 0 -10 -5 -18 -11 -18 -8 0 -10 -12 -6 -35 5 -28 3 -33 -6 -23 -9 9 -11 41 -8 103 3 72 6 84 13 60 5 -16 6 -46 3 -65z m-2664 60 c10 0 19 -5 19 -11 0 -5 5 -7 11 -4 6 4 8 14 5 22 -3 8 -1 11 5 8 5 -4 7 -15 4 -24 -6 -21 29 -66 45 -56 6 3 9 1 8 -7 -2 -7 5 -12 14 -12 10 1 15 -2 12 -8 -3 -5 8 -14 25 -21 17 -6 31 -14 31 -18 0 -3 12 -4 26 -1 18 3 25 1 20 -6 -4 -7 6 -9 31 -7 30 4 33 3 13 -4 -19 -6 -8 -8 43 -9 42 -1 67 3 67 10 0 7 4 7 13 0 13 -11 58 -5 67 9 3 5 23 14 45 21 23 7 40 20 40 28 0 9 9 14 23 13 12 -2 22 2 22 7 0 15 43 29 56 19 6 -5 15 -5 19 -1 5 4 5 2 2 -4 -4 -7 0 -17 8 -24 8 -7 15 -21 15 -31 0 -10 4 -20 9 -23 7 -5 28 -147 24 -166 -10 -47 -10 -70 0 -70 6 0 1 -7 -11 -16 -21 -14 -26 -13 -75 10 -28 14 -67 29 -84 32 -18 4 -33 10 -33 15 0 5 -22 7 -50 5 -27 -2 -50 1 -50 5 0 5 -9 9 -21 9 -11 0 -18 -4 -15 -8 2 -4 -7 -9 -22 -10 -22 -1 -24 0 -12 9 11 8 8 9 -15 4 -16 -3 -37 -6 -45 -6 -35 -1 -70 -11 -65 -19 3 -5 1 -12 -5 -15 -6 -4 -9 -1 -8 6 2 6 -3 14 -11 17 -9 3 -11 0 -6 -8 5 -9 2 -10 -15 -5 -17 5 -21 4 -15 -6 6 -9 4 -11 -7 -6 -9 3 -19 2 -24 -3 -5 -4 -26 -13 -47 -20 -20 -6 -35 -16 -32 -21 4 -5 -1 -6 -9 -3 -9 3 -16 1 -16 -5 0 -6 -6 -11 -12 -11 -7 0 -31 -16 -53 -35 -84 -74 -81 -72 -99 -60 -9 7 -16 22 -16 34 0 11 -5 21 -11 21 -7 0 -9 10 -5 26 5 18 3 24 -5 18 -9 -5 -10 1 -5 20 4 15 3 25 -1 23 -4 -3 -8 9 -9 26 0 18 -3 52 -6 77 -4 25 -7 49 -7 53 -1 5 -6 5 -12 1 -13 -7 21 48 35 57 5 4 6 12 2 18 -4 6 -2 9 7 5 8 -3 20 3 28 12 12 15 12 16 -8 10 -12 -4 -24 -3 -27 2 -3 6 0 10 7 9 39 -1 49 3 38 17 -9 11 -6 13 13 11 27 -3 62 27 51 44 -4 7 0 8 11 4 13 -5 16 -3 11 10 -4 11 -2 14 9 10 9 -3 13 0 11 8 -2 8 -2 11 0 7 3 -5 13 -8 24 -8z m1133 4 c3 -8 2 -12 -4 -9 -6 3 -10 10 -10 16 0 14 7 11 14 -7z m853 -16 c-3 -7 -5 -2 -5 12 0 14 2 19 5 13 2 -7 2 -19 0 -25z m410 -10 c-3 -8 -6 -5 -6 6 -1 11 2 17 5 13 3 -3 4 -12 1 -19z m-533 -24 c3 -8 2 -12 -4 -9 -6 3 -10 10 -10 16 0 14 7 11 14 -7z m-24 -8 c0 -2 -8 -10 -17 -17 -16 -13 -17 -12 -4 4 13 16 21 21 21 13z m-2300 -85 c3 -2 -3 -1 -12 2 -12 4 -15 2 -11 -8 3 -8 10 -12 16 -8 6 4 8 -2 4 -16 -4 -16 -1 -21 10 -19 9 2 17 -3 19 -10 1 -7 0 -8 -3 -2 -2 5 -9 8 -14 4 -14 -8 0 -24 22 -24 10 0 19 -4 19 -9 0 -5 -8 -8 -17 -6 -10 1 -12 0 -5 -2 6 -3 12 -8 12 -13 0 -5 7 -6 17 -3 11 4 14 3 9 -5 -6 -11 1 -14 29 -12 3 1 13 -6 21 -15 9 -8 20 -12 26 -9 7 4 8 2 4 -4 -4 -8 0 -12 10 -12 16 0 16 -1 -2 -16 -10 -8 -13 -13 -6 -9 6 3 12 4 12 0 0 -5 -43 -26 -60 -29 -23 -6 -70 -33 -70 -42 0 -6 -9 -19 -20 -29 -11 -10 -20 -24 -20 -31 0 -7 -5 -24 -11 -38 -12 -25 -13 -25 -40 -9 -16 10 -29 21 -29 26 0 4 -4 5 -10 2 -5 -3 -10 -1 -10 4 0 6 5 11 12 11 6 0 3 6 -7 14 -17 12 -17 16 -6 30 12 14 11 16 -5 10 -10 -4 -16 -4 -12 1 7 7 -26 44 -41 46 -57 7 -70 16 -67 44 4 30 0 26 54 50 23 10 42 23 42 28 0 6 3 7 7 4 3 -4 12 -2 19 4 10 8 11 16 3 30 -7 14 -7 19 2 17 7 -2 14 9 15 25 2 15 13 36 26 47 24 20 21 20 68 -19z m1600 17 c10 -21 10 -21 -3 -6 -8 10 -18 14 -22 10 -5 -4 -5 -1 -1 6 10 17 14 15 26 -10z m1207 -20 c-3 -7 -5 -2 -5 12 0 14 2 19 5 13 2 -7 2 -19 0 -25z m364 9 c-10 -9 -11 -8 -5 6 3 10 9 15 12 12 3 -3 0 -11 -7 -18z m-1527 -37 c-6 -6 -10 -3 -10 10 0 13 4 16 10 10 7 -7 7 -13 0 -20z m1451 -65 c-4 -36 -10 -53 -17 -48 -8 4 -9 0 -4 -12 4 -11 2 -22 -6 -26 -10 -7 -10 -11 0 -21 14 -14 16 -38 2 -38 -5 0 -7 7 -3 16 4 12 2 15 -8 12 -8 -3 -15 -12 -17 -21 -4 -18 -60 -109 -85 -138 -7 -8 -12 -20 -10 -25 2 -6 -6 -19 -17 -29 -11 -10 -20 -23 -20 -30 0 -7 -13 -26 -30 -43 -16 -18 -30 -36 -30 -41 0 -5 -7 -14 -16 -22 -14 -11 -12 -14 13 -27 34 -18 63 -42 63 -54 0 -5 -11 -14 -25 -20 -14 -6 -25 -18 -25 -27 -1 -14 -2 -14 -11 1 -9 16 -11 16 -30 0 -11 -9 -22 -16 -26 -14 -9 5 -63 -81 -63 -100 0 -9 -4 -19 -10 -23 -5 -3 -7 -13 -4 -23 5 -14 4 -15 -5 -2 -6 8 -11 11 -11 6 0 -5 -11 1 -25 14 -14 13 -23 30 -20 38 6 15 -7 8 -42 -22 -14 -12 -21 -26 -18 -35 3 -9 3 -12 -1 -8 -4 4 -13 2 -21 -4 -7 -6 -13 -8 -13 -5 0 4 -7 0 -16 -9 -13 -12 -14 -18 -4 -31 11 -12 10 -13 -3 -8 -17 6 -66 -40 -67 -63 0 -7 -4 -13 -9 -13 -5 0 -20 -23 -34 -52 -22 -44 -23 -53 -11 -65 8 -8 14 -21 14 -29 0 -8 5 -14 10 -14 6 0 10 -6 10 -14 0 -14 36 -32 53 -28 5 1 6 -2 2 -8 -3 -5 -2 -10 4 -10 5 0 13 5 16 10 3 6 12 10 18 9 9 0 9 -2 0 -5 -7 -3 -9 -12 -6 -19 4 -12 10 -12 26 -4 18 10 20 9 10 -2 -23 -23 -14 -32 15 -15 l27 17 -27 -24 c-15 -14 -24 -28 -21 -31 4 -3 -3 -7 -15 -7 -37 -2 -39 -3 -74 -29 -18 -14 -36 -24 -40 -22 -5 1 -7 -1 -6 -6 1 -4 -6 -19 -16 -34 -18 -27 -16 -65 3 -54 11 7 7 -41 -4 -52 -4 -4 -4 4 -1 18 l7 25 -21 -25 c-11 -14 -18 -18 -15 -10 4 11 -1 16 -15 18 -48 4 -50 5 -39 18 7 8 7 14 -1 19 -6 3 -8 10 -5 15 7 12 -6 41 -16 34 -5 -3 -6 2 -3 10 12 30 -15 16 -42 -23 -16 -21 -37 -42 -49 -47 -11 -5 -19 -17 -19 -26 1 -9 -4 -14 -10 -12 -6 2 -25 -8 -42 -23 -16 -16 -43 -36 -58 -47 -23 -14 -26 -20 -15 -28 11 -8 10 -9 -3 -4 -11 3 -45 -13 -90 -44 -40 -28 -79 -50 -86 -50 -7 0 -10 -5 -7 -10 4 -6 3 -10 -2 -9 -12 3 -43 -11 -86 -39 -20 -14 -40 -22 -44 -19 -3 4 -13 1 -21 -6 -8 -6 -33 -17 -56 -23 -23 -6 -40 -16 -38 -23 1 -7 -2 -10 -8 -6 -9 6 -50 -4 -105 -25 -42 -16 -52 -18 -66 -9 -11 7 -10 9 6 9 46 0 397 143 415 169 3 4 12 10 21 13 15 6 105 64 159 103 87 63 201 170 222 209 9 17 7 18 -16 14 -15 -3 -29 -1 -33 5 -3 6 -1 7 5 3 7 -4 12 -2 12 5 0 6 -8 9 -19 6 -28 -7 -61 20 -61 49 0 14 4 23 9 19 5 -3 15 1 23 8 7 8 19 12 27 9 8 -3 11 0 7 6 -3 5 1 13 10 16 10 4 13 2 9 -7 -4 -6 1 -3 10 8 9 11 19 20 23 20 4 0 7 5 7 12 0 7 7 18 15 25 12 11 12 10 0 -7 -14 -19 -14 -19 3 -6 9 7 16 19 15 25 -3 17 12 69 19 62 3 -3 12 -1 19 5 8 7 14 7 19 -1 3 -5 0 -10 -7 -10 -8 0 -19 -20 -26 -47 -15 -56 -63 -104 -121 -121 -22 -7 -41 -17 -41 -22 0 -5 19 -15 41 -22 59 -17 105 -64 120 -121 6 -26 15 -47 19 -47 4 0 11 17 15 38 5 29 40 102 48 102 1 0 29 11 61 24 l60 25 -56 24 c-58 26 -100 71 -112 120 -5 21 0 36 19 61 14 18 25 36 25 41 0 12 66 91 147 175 65 67 91 102 63 85 -5 -3 -10 0 -10 7 0 9 -3 9 -10 -2 -8 -11 -9 -9 -5 11 6 25 -3 34 -39 37 -5 0 -12 6 -16 12 -11 17 -64 4 -57 -14 3 -7 -1 -13 -8 -13 -11 0 -11 5 -3 20 7 15 7 22 -3 28 -11 7 -11 9 -1 9 7 0 11 4 8 8 -2 4 5 19 16 32 11 14 17 19 13 13 -4 -9 -1 -11 9 -7 9 3 13 11 10 16 -4 6 2 8 15 3 15 -5 21 -2 21 9 0 9 7 16 15 16 18 0 56 40 49 52 -3 4 0 8 6 8 6 0 10 6 9 13 -4 23 19 64 39 70 15 3 19 1 15 -9 -3 -8 3 -17 13 -21 22 -9 30 -33 12 -33 -6 0 -4 -6 6 -13 10 -7 17 -20 16 -28 -4 -25 0 -39 11 -39 5 0 7 5 3 12 -4 7 -3 8 4 4 6 -4 9 -14 6 -24 -3 -9 18 8 48 38 30 30 52 60 49 65 -2 6 -1 7 4 3 4 -4 19 14 31 40 13 26 32 59 41 74 28 42 73 120 73 127 0 3 6 17 13 31 7 14 22 55 32 92 11 37 21 65 23 63 3 -2 1 -29 -3 -60z m-157 35 c-7 -10 -14 -18 -15 -16 -6 6 9 36 18 36 5 0 4 -9 -3 -20z m192 0 c0 -5 -5 -10 -11 -10 -5 0 -7 5 -4 10 3 6 8 10 11 10 2 0 4 -4 4 -10z m-714 -19 c1 -6 0 -7 -3 -1 -2 5 -9 8 -13 5 -5 -3 -11 -1 -14 4 -4 5 2 8 11 7 9 -2 18 -8 19 -15z m584 -1 c-6 -11 -13 -20 -16 -20 -2 0 0 9 6 20 6 11 13 20 16 20 2 0 0 -9 -6 -20z m120 -45 c-5 -22 -10 -57 -10 -77 0 -21 -4 -38 -8 -38 -8 0 3 119 14 149 10 29 13 4 4 -34z m-3282 27 c9 -6 6 -12 -12 -20 -23 -10 -26 -6 -17 26 2 5 16 1 29 -6z m2613 -76 c-2 -20 -6 -24 -12 -15 -6 10 -9 5 -10 -16 0 -16 -7 -46 -15 -65 -9 -22 -12 -26 -9 -10 37 185 39 195 45 165 3 -16 4 -43 1 -59z m-83 29 c-3 -3 -9 2 -12 12 -6 14 -5 15 5 6 7 -7 10 -15 7 -18z m-2749 -120 c33 -332 168 -639 395 -900 34 -38 71 -78 84 -88 12 -10 28 -24 35 -31 53 -53 197 -147 313 -205 106 -53 168 -77 264 -101 69 -17 143 -33 165 -36 22 -2 65 -7 95 -11 30 -3 69 -7 87 -7 18 -1 38 -7 45 -15 11 -11 11 -13 -1 -6 -23 13 -102 15 -94 2 5 -9 3 -9 -8 0 -8 6 -46 14 -85 17 -104 7 -396 88 -428 117 -6 5 -17 9 -26 9 -9 0 -25 8 -36 19 -11 10 -37 24 -57 32 -20 7 -47 23 -61 36 -14 13 -28 23 -31 23 -7 0 -63 39 -85 60 -8 8 -35 31 -59 50 -25 19 -60 52 -79 72 -20 20 -40 34 -45 31 -6 -3 -7 -1 -4 4 4 6 0 17 -9 24 -8 7 -22 26 -30 42 -10 18 -21 27 -30 23 -9 -3 -12 -2 -9 5 4 5 -9 31 -29 56 -20 26 -36 51 -36 57 0 6 -5 4 -11 -4 -9 -12 -10 -11 -6 7 3 13 -1 24 -9 27 -8 3 -11 12 -7 22 4 11 2 15 -4 11 -6 -4 -10 1 -9 11 0 9 -4 16 -10 15 -7 -1 -11 5 -10 15 0 9 -5 16 -12 14 -8 -1 -11 2 -8 7 8 13 -23 83 -33 76 -5 -3 -7 4 -4 15 3 12 -4 28 -23 45 -18 17 -22 23 -9 19 10 -4 16 -3 13 2 -31 53 -74 189 -84 264 -4 27 -10 50 -14 50 -4 0 -5 11 -2 25 2 15 0 25 -7 25 -7 0 -10 4 -6 9 3 5 1 12 -5 16 -5 3 -10 12 -10 18 0 7 4 6 10 -3 9 -14 8 17 -4 124 -2 21 0 34 4 30 5 -5 13 -59 19 -119z m41 110 c0 4 6 3 13 -2 6 -4 15 -8 19 -8 3 0 10 -4 15 -9 4 -5 3 -6 -4 -2 -15 8 -27 -10 -16 -26 4 -7 8 -16 8 -19 0 -13 74 -87 81 -81 4 4 3 1 -1 -7 -6 -11 -4 -13 8 -8 11 4 14 2 11 -7 -6 -15 72 -93 88 -88 5 1 7 -2 4 -7 -3 -5 25 -40 63 -79 38 -39 66 -74 63 -78 -4 -4 1 -4 10 -1 10 3 17 3 16 -1 -4 -12 158 -163 166 -155 4 4 4 0 0 -10 -3 -10 -1 -17 6 -17 6 0 18 -7 27 -15 8 -8 19 -13 24 -10 5 4 6 -1 3 -9 -3 -9 -9 -16 -13 -16 -10 0 -445 433 -514 512 -75 85 -126 164 -97 148 11 -6 20 -8 20 -5z m95 -16 c-4 -5 -12 -9 -18 -8 -9 0 -8 2 1 6 6 2 9 10 6 15 -4 7 -2 8 5 4 6 -4 9 -12 6 -17z m2490 -8 c-9 -8 -36 -10 -30 -2 2 4 11 8 20 8 8 0 13 -3 10 -6z m-2499 -33 c10 -13 15 -20 10 -16 -5 4 -16 2 -25 -5 -14 -10 -14 -10 -3 5 9 11 10 18 2 23 -5 3 -10 1 -10 -6 0 -7 -3 -10 -6 -6 -5 5 3 27 10 27 2 0 11 -10 22 -22z m2645 -21 c-10 -9 -11 -8 -5 6 3 10 9 15 12 12 3 -3 0 -11 -7 -18z m210 -8 c-5 -13 -10 -19 -10 -12 -1 15 10 45 15 40 3 -2 0 -15 -5 -28z m-403 -14 c-3 -3 -9 2 -12 12 -6 14 -5 15 5 6 7 -7 10 -15 7 -18z m-28 -10 c-6 -8 -8 -20 -4 -27 5 -10 4 -10 -5 -2 -13 12 -5 44 11 44 6 0 5 -6 -2 -15z m491 -8 c-10 -9 -11 -8 -5 6 3 10 9 15 12 12 3 -3 0 -11 -7 -18z m425 -66 c-15 -69 -25 -73 -13 -6 6 30 13 55 17 55 4 0 2 -22 -4 -49z m-941 22 c-2 -10 -4 -19 -4 -21 -1 -2 -6 0 -11 3 -8 5 -7 11 1 21 15 18 18 18 14 -3z m238 -65 c-13 -40 -26 -80 -28 -88 -2 -8 -4 -17 -5 -20 -1 -3 -2 -9 -1 -13 1 -4 -8 -17 -19 -29 -11 -12 -20 -29 -20 -37 0 -9 -7 -29 -15 -45 -9 -16 -16 -39 -17 -52 -1 -12 -6 -20 -10 -18 -4 3 -8 0 -8 -6 0 -6 -7 -18 -15 -26 -8 -9 -18 -27 -21 -41 -4 -14 -15 -34 -26 -45 -13 -13 -17 -26 -13 -41 5 -17 4 -18 -4 -8 -8 12 -12 10 -22 -12 -7 -15 -16 -27 -20 -27 -8 0 -24 -40 -21 -53 1 -5 -2 -6 -7 -3 -5 4 -12 -3 -16 -14 -6 -18 -22 -37 -116 -136 -20 -21 -27 -38 -23 -50 5 -15 4 -16 -4 -5 -8 12 -16 9 -44 -17 -76 -71 -137 -115 -198 -144 -36 -17 -67 -34 -70 -38 -3 -3 -32 -12 -65 -20 -33 -8 -66 -20 -73 -27 -8 -8 -23 -10 -39 -7 -15 4 -24 3 -20 -2 3 -5 -19 -7 -49 -6 -38 3 -54 0 -54 -8 0 -9 -3 -10 -14 -1 -7 6 -22 9 -32 5 -14 -4 -15 -3 -6 4 10 7 2 11 -29 16 -23 4 -39 9 -37 12 5 4 31 -1 98 -17 8 -2 15 2 15 10 0 8 -11 16 -24 18 -14 2 -27 6 -30 10 -3 3 4 4 16 1 27 -7 40 24 42 98 1 60 -14 80 -56 70 -21 -5 -24 -4 -13 4 12 8 8 10 -15 8 -16 0 -48 6 -69 16 -22 9 -49 14 -60 11 -13 -4 -17 -3 -9 2 9 6 1 13 -25 23 -20 8 -41 13 -45 12 -5 -1 -6 2 -3 7 3 5 -11 16 -32 24 -35 14 -137 91 -174 130 -10 11 -22 16 -29 11 -8 -5 -9 -3 -4 6 5 8 1 18 -10 26 -10 8 -16 17 -13 20 4 3 33 -20 65 -51 67 -65 115 -101 193 -141 30 -15 57 -31 60 -34 7 -8 149 -48 197 -56 l40 -6 1 43 c1 23 4 45 7 47 3 3 5 -66 5 -152 l0 -158 33 6 c50 10 51 10 81 2 16 -4 25 -3 22 2 -3 5 24 17 60 27 266 72 538 342 711 705 54 113 68 147 83 195 7 22 16 45 20 50 4 6 13 31 20 58 7 26 16 47 20 47 4 0 -4 -33 -17 -72z m-2696 20 c-3 -7 -5 -2 -5 12 0 14 2 19 5 13 2 -7 2 -19 0 -25z m3370 10 c-3 -8 -6 -5 -6 6 -1 11 2 17 5 13 3 -3 4 -12 1 -19z m-2260 -4 c-3 -3 -12 -4 -19 -1 -8 3 -5 6 6 6 11 1 17 -2 13 -5z m159 -17 c7 -4 28 -8 47 -9 19 -2 33 -7 29 -12 -3 -5 2 -7 11 -3 9 3 19 2 22 -4 4 -5 11 -6 17 -3 6 4 8 2 5 -3 -4 -6 5 -16 21 -22 15 -5 34 -16 42 -23 21 -17 39 -79 33 -115 -12 -80 -16 -84 -70 -61 -15 6 -35 10 -43 9 -13 -2 -13 -1 0 8 12 8 8 11 -16 11 -17 0 -45 7 -63 16 -25 13 -52 15 -129 10 -120 -7 -138 -9 -148 -18 -4 -5 -18 -8 -30 -8 -12 0 -30 -7 -38 -16 -9 -8 -16 -13 -16 -10 0 4 -18 -6 -40 -20 -30 -20 -38 -30 -28 -36 9 -6 6 -7 -8 -3 -16 4 -26 -1 -37 -19 -23 -34 -49 -24 -93 36 -19 28 -31 47 -25 43 16 -10 13 6 -5 26 -15 17 -15 19 0 35 14 13 14 19 4 33 -12 14 -11 14 4 3 14 -11 20 -10 37 5 39 35 50 43 66 43 9 0 13 5 10 10 -3 6 1 10 10 10 11 0 15 5 11 16 -3 9 -2 12 5 9 15 -10 70 15 62 28 -3 6 -1 7 5 3 6 -3 28 1 50 9 67 27 267 42 298 22z m1181 -21 c-7 -13 -15 -22 -19 -20 -3 2 -16 -8 -28 -23 -12 -16 -25 -27 -28 -27 -4 1 -31 -14 -60 -32 -29 -19 -56 -34 -61 -34 -5 0 -22 -10 -38 -22 -15 -13 -37 -28 -48 -35 -11 -6 -19 -16 -17 -23 1 -6 -2 -9 -8 -5 -6 4 -30 -12 -53 -34 -23 -23 -45 -41 -50 -41 -4 0 -5 -4 -2 -10 3 -5 1 -10 -5 -10 -6 0 -8 -5 -4 -12 4 -7 3 -8 -4 -4 -7 4 -31 -12 -57 -38 -25 -25 -50 -46 -57 -46 -16 0 109 127 192 194 36 29 110 80 165 114 55 34 120 77 145 96 25 20 46 36 47 36 0 0 -4 -11 -10 -24z m910 2 c-3 -8 -6 -5 -6 6 -1 11 2 17 5 13 3 -3 4 -12 1 -19z m-2467 -8 c8 -5 11 -10 5 -10 -5 0 -17 5 -25 10 -8 5 -10 10 -5 10 6 0 17 -5 25 -10z m-857 -7 c-7 -2 -19 -2 -25 0 -7 3 -2 5 12 5 14 0 19 -2 13 -5z m91 -9 c3 -8 2 -12 -4 -9 -6 3 -10 10 -10 16 0 14 7 11 14 -7z m-49 -24 c3 -5 2 -10 -4 -10 -5 0 -13 5 -16 10 -3 6 -2 10 4 10 5 0 13 -4 16 -10z m43 -15 c-3 -3 -9 2 -12 12 -6 14 -5 15 5 6 7 -7 10 -15 7 -18z m-83 -4 c-3 -6 -11 -11 -16 -11 -5 0 -4 6 3 14 14 16 24 13 13 -3z m3302 -13 c-3 -7 -5 -2 -5 12 0 14 2 19 5 13 2 -7 2 -19 0 -25z m31 2 c-7 -10 -14 -18 -15 -16 -6 6 9 36 18 36 5 0 4 -9 -3 -20z m57 0 c-3 -5 -11 -10 -16 -10 -6 0 -7 5 -4 10 3 6 11 10 16 10 6 0 7 -4 4 -10z m-3224 -21 c9 -17 8 -20 -2 -14 -9 6 -11 3 -6 -8 8 -22 5 -21 -17 5 -17 19 -17 20 -1 14 13 -4 16 -2 11 9 -8 22 2 18 15 -6z m-83 -19 c7 -11 11 -20 9 -20 -2 0 -12 9 -22 20 -10 11 -14 20 -9 20 5 0 15 -9 22 -20z m2273 -3 c-10 -9 -11 -8 -5 6 3 10 9 15 12 12 3 -3 0 -11 -7 -18z m-2223 -23 c-4 -3 -12 5 -18 18 -12 22 -12 22 6 6 10 -10 15 -20 12 -24z m3174 -16 c-6 -6 -7 0 -4 19 5 21 7 23 10 9 2 -10 0 -22 -6 -28z m-985 10 c-3 -8 -6 -5 -6 6 -1 11 2 17 5 13 3 -3 4 -12 1 -19z m843 12 c0 -5 -5 -10 -11 -10 -5 0 -7 5 -4 10 3 6 8 10 11 10 2 0 4 -4 4 -10z m-3035 -70 c7 -24 6 -24 -7 -5 -8 11 -18 29 -22 40 -6 18 -5 18 7 5 8 -8 18 -26 22 -40z m175 -26 c0 -2 -9 0 -20 6 -11 6 -20 13 -20 16 0 2 9 0 20 -6 11 -6 20 -13 20 -16z m-112 -29 c-3 -3 -9 2 -12 12 -6 14 -5 15 5 6 7 -7 10 -15 7 -18z m1552 20 c0 -7 -30 -13 -34 -7 -3 4 4 9 15 9 10 1 19 0 19 -2z m1488 -26 c-3 -8 -7 -3 -11 10 -4 17 -3 21 5 13 5 -5 8 -16 6 -23z m21 -27 c-6 -18 -14 -32 -19 -32 -4 0 0 16 8 35 19 42 26 40 11 -3z m-2384 9 c3 -5 2 -12 -3 -15 -5 -3 -9 1 -9 9 0 17 3 19 12 6z m-801 -29 c3 -5 -1 -9 -9 -9 -8 0 -12 4 -9 9 3 4 7 8 9 8 2 0 6 -4 9 -8z m1697 -18 c-12 -9 -18 -22 -16 -34 2 -11 0 -22 -4 -25 -5 -2 -7 9 -6 25 3 29 -8 40 -20 20 -3 -5 -16 -15 -28 -20 -15 -8 -12 -4 7 11 15 12 33 28 39 34 6 7 20 10 30 7 17 -4 17 -5 -2 -18z m1440 -1 c-12 -20 -14 -14 -5 12 4 9 9 14 11 11 3 -2 0 -13 -6 -23z m-1291 12 c0 -2 -10 -9 -22 -15 -22 -11 -22 -10 -4 4 21 17 26 19 26 11z m-50 -9 c0 -2 -7 -7 -16 -10 -8 -3 -12 -2 -9 4 6 10 25 14 25 6z m-1600 -148 c11 -26 20 -53 19 -60 0 -9 -2 -8 -6 2 -9 26 -44 104 -64 142 -10 20 -19 43 -19 49 0 14 35 -53 70 -133z m2930 66 c-16 -32 -30 -55 -30 -50 0 14 55 125 58 117 1 -4 -11 -34 -28 -67z m-1819 12 c4 -5 15 -6 25 -2 15 6 17 5 7 -5 -10 -10 -26 -9 -81 9 -81 26 -190 29 -272 7 -64 -17 -73 -18 -66 -6 3 5 26 12 51 15 24 4 47 11 49 15 3 5 38 9 78 10 40 1 74 3 75 5 5 5 128 -38 134 -48z m-817 -7 c-8 -13 74 -99 95 -99 8 0 11 -3 8 -7 -11 -10 44 -63 57 -56 6 3 8 3 4 -2 -10 -11 20 -38 33 -29 8 5 9 3 5 -5 -9 -14 21 -51 41 -51 7 0 13 -5 13 -11 0 -5 12 -24 28 -40 15 -16 37 -41 50 -54 12 -13 22 -28 22 -34 0 -5 3 -11 8 -13 4 -2 25 -25 47 -53 56 -69 107 -121 127 -128 10 -3 15 -12 13 -19 -6 -16 60 -63 74 -53 6 3 9 0 6 -8 -6 -14 84 -97 104 -97 6 0 11 -4 11 -10 0 -5 7 -10 15 -10 8 0 15 -4 15 -10 0 -5 11 -10 24 -10 13 0 26 -6 29 -14 5 -11 0 -13 -21 -7 -82 24 -284 201 -416 366 -26 33 -60 75 -74 93 -43 54 -181 190 -187 184 -3 -3 -5 1 -5 8 0 7 -3 11 -6 8 -9 -9 15 -50 44 -77 15 -13 21 -20 15 -17 -7 4 -13 5 -13 2 0 -3 10 -10 21 -17 17 -9 20 -8 14 2 -6 8 -4 10 4 5 7 -5 10 -14 7 -22 -3 -7 0 -11 7 -8 16 6 63 -43 52 -53 -4 -5 -10 -3 -12 4 -2 6 -27 23 -56 37 -57 27 -87 67 -97 126 -7 47 -23 44 -33 -7 -11 -58 -60 -109 -120 -124 -25 -7 -44 -16 -41 -20 2 -4 29 -19 59 -33 58 -26 90 -65 101 -123 9 -45 20 -41 33 11 6 24 22 58 37 75 31 37 92 59 120 43 11 -7 13 -12 6 -12 -7 0 -10 -6 -7 -12 4 -7 0 -5 -8 5 -13 15 -16 15 -27 2 -7 -8 -16 -13 -20 -10 -4 2 -22 -12 -41 -32 -19 -20 -29 -33 -23 -30 6 3 11 0 11 -8 0 -8 -4 -12 -8 -9 -5 3 -11 -7 -15 -21 -14 -56 -74 -64 -74 -10 0 17 -5 22 -22 21 -29 -3 -40 3 -33 15 4 5 14 5 26 -1 21 -12 22 -10 13 14 -3 9 -11 13 -17 9 -7 -4 -8 0 -4 11 6 14 3 17 -8 12 -9 -3 -13 -2 -10 4 3 6 -1 10 -9 10 -9 0 -16 5 -16 11 0 5 -4 7 -10 4 -5 -3 -10 0 -11 7 0 10 -2 10 -6 0 -4 -10 -14 -6 -36 15 -16 15 -27 23 -24 18 3 -6 1 -17 -4 -25 -9 -13 -10 -13 -6 0 2 8 -5 22 -16 31 -15 11 -17 18 -8 23 7 4 10 2 9 -5 -2 -6 3 -14 11 -17 10 -3 12 0 8 11 -4 11 -2 14 7 11 8 -3 17 0 21 5 3 6 11 8 17 5 5 -4 5 4 -2 17 -10 20 -10 22 1 12 22 -22 47 -15 81 23 18 20 36 42 41 49 9 16 -2 47 -14 39 -15 -9 -10 3 8 17 14 12 16 12 9 0 -6 -9 -5 -12 5 -9 8 3 13 11 11 17 -1 7 2 10 8 6 5 -3 10 -2 10 3 0 6 -25 33 -56 61 -47 43 -54 54 -44 66 14 17 24 20 14 4z m375 -31 c-40 -29 -89 -52 -89 -42 0 2 8 8 18 12 42 18 82 48 78 58 -3 7 3 10 15 7 16 -5 13 -10 -22 -35z m1265 34 c3 -5 -1 -9 -9 -9 -8 0 -12 4 -9 9 3 4 7 8 9 8 2 0 6 -4 9 -8z m-419 -20 c-3 -3 -11 0 -18 7 -9 10 -8 11 6 5 10 -3 15 -9 12 -12z m-1635 -27 c0 -5 -5 -3 -10 5 -5 8 -10 20 -10 25 0 6 5 3 10 -5 5 -8 10 -19 10 -25z m884 -1 c28 -29 32 -39 16 -49 -5 -3 -10 1 -10 9 0 9 -3 16 -7 16 -12 1 -46 50 -35 50 5 0 21 -12 36 -26z m323 -10 c-3 -3 -12 -4 -19 -1 -8 3 -5 6 6 6 11 1 17 -2 13 -5z m1023 -34 c-12 -16 -24 -30 -26 -30 -3 0 4 14 16 30 12 17 24 30 26 30 3 0 -4 -13 -16 -30z m743 15 c-3 -9 -8 -14 -10 -11 -3 3 -2 9 2 15 9 16 15 13 8 -4z m-2463 -5 c0 -5 -5 -10 -11 -10 -5 0 -7 5 -4 10 3 6 8 10 11 10 2 0 4 -4 4 -10z m255 -2 c-11 -6 -23 -16 -27 -22 -5 -8 -8 -7 -8 1 0 12 28 32 45 32 6 0 1 -5 -10 -11z m1855 -12 c0 -2 -8 -10 -17 -17 -16 -13 -17 -12 -4 4 13 16 21 21 21 13z m361 -34 c-12 -17 -21 -33 -21 -36 0 -4 -11 -19 -25 -34 -14 -15 -25 -22 -25 -15 0 6 4 13 8 15 4 2 23 27 42 55 18 29 35 51 38 49 2 -3 -5 -18 -17 -34z m-1234 6 c-3 -8 -6 -5 -6 6 -1 11 2 17 5 13 3 -3 4 -12 1 -19z m94 -1 c-10 -9 -11 -8 -5 6 3 10 9 15 12 12 3 -3 0 -11 -7 -18z m-1114 -19 c-3 -8 -6 -5 -6 6 -1 11 2 17 5 13 3 -3 4 -12 1 -19z m999 -13 c-11 -8 -25 -15 -30 -15 -6 1 0 7 14 15 32 19 40 18 16 0z m1178 7 c3 -5 -1 -9 -9 -9 -8 0 -12 4 -9 9 3 4 7 8 9 8 2 0 6 -4 9 -8z m-2706 -27 c-3 -3 -9 2 -12 12 -6 14 -5 15 5 6 7 -7 10 -15 7 -18z m1758 -5 c0 -12 -4 -16 -9 -11 -5 5 -6 14 -3 20 10 15 12 14 12 -9z m-1505 -27 c-12 -20 -14 -14 -5 12 4 9 9 14 11 11 3 -2 0 -13 -6 -23z m1386 0 c11 -17 11 -20 -1 -20 -9 0 -13 4 -10 9 3 4 2 13 -2 19 -5 8 -9 8 -14 -1 -5 -8 -9 -8 -13 3 -8 22 24 14 40 -10z m627 -13 c-5 -5 -10 3 -11 18 -1 22 0 24 9 8 6 -10 6 -22 2 -26z m-1684 9 c0 -6 -4 -7 -10 -4 -5 3 -10 11 -10 16 0 6 5 7 10 4 6 -3 10 -11 10 -16z m983 6 c-3 -9 -8 -14 -10 -11 -3 3 -2 9 2 15 9 16 15 13 8 -4z m674 -15 c-1 -14 -4 -16 -14 -8 -16 13 -17 22 -1 12 8 -5 9 -2 5 10 -4 9 -3 15 2 11 6 -3 9 -14 8 -25z m-100 -2 c-3 -8 -6 -5 -6 6 -1 11 2 17 5 13 3 -3 4 -12 1 -19z m-1083 4 c2 -4 -4 -8 -14 -8 -10 0 -16 4 -14 8 3 4 9 8 14 8 5 0 11 -4 14 -8z m-400 -64 c28 -29 72 -69 96 -88 25 -19 54 -43 65 -54 20 -18 20 -18 -3 -7 -12 7 -27 9 -32 6 -5 -3 -7 0 -4 8 3 8 -10 25 -33 42 -46 35 -159 145 -148 145 4 0 30 -24 59 -52z m2039 37 c-3 -9 -8 -14 -10 -11 -3 3 -2 9 2 15 9 16 15 13 8 -4z m-507 -23 c-17 -16 -18 -16 -5 5 7 12 15 20 18 17 3 -2 -3 -12 -13 -22z m-2005 -5 c-7 -7 -14 -8 -21 -1 -6 6 -2 10 12 11 16 2 18 -1 9 -10z m864 3 c3 -6 -1 -7 -9 -4 -18 7 -21 14 -7 14 6 0 13 -4 16 -10z m1192 -22 c-3 -8 -6 -5 -6 6 -1 11 2 17 5 13 3 -3 4 -12 1 -19z m443 18 c0 -2 -7 -9 -15 -16 -13 -11 -14 -10 -9 4 5 14 24 23 24 12z m-1960 -28 c0 -6 -6 -5 -15 2 -8 7 -15 14 -15 16 0 2 7 1 15 -2 8 -4 15 -11 15 -16z m944 6 c3 -8 2 -12 -4 -9 -6 3 -10 10 -10 16 0 14 7 11 14 -7z m-1664 -19 c0 -2 -9 -3 -19 -2 -11 0 -18 5 -15 9 4 6 34 0 34 -7z m-206 -14 c14 -15 15 -21 4 -27 -7 -4 -10 -3 -5 1 4 5 0 17 -10 27 -9 10 -14 18 -11 18 3 0 13 -9 22 -19z m250 3 c4 -10 1 -14 -6 -12 -15 5 -23 28 -10 28 5 0 13 -7 16 -16z m1601 4 c5 4 5 1 1 -6 -6 -9 -11 -10 -20 -3 -7 6 -17 7 -21 3 -5 -4 -5 -1 -1 6 6 9 11 10 20 3 7 -6 17 -7 21 -3z m78 -13 c-3 -9 -8 -14 -10 -11 -3 3 -2 9 2 15 9 16 15 13 8 -4z m450 -12 c-5 -12 -3 -14 7 -8 9 5 11 4 6 -4 -4 -6 -12 -9 -17 -6 -5 4 -9 1 -9 -6 0 -7 -3 -10 -6 -7 -3 4 -1 16 6 27 13 25 22 28 13 4z m435 -7 c-6 -14 -17 -27 -25 -30 -15 -6 -10 5 16 36 21 24 23 23 9 -6z m-1813 -15 c-6 -5 -25 10 -25 20 0 5 6 4 14 -3 8 -7 12 -15 11 -17z m-719 -8 c-10 -11 -19 -7 -22 10 -2 15 0 16 12 6 8 -6 12 -14 10 -16z m49 8 c3 -5 2 -12 -3 -15 -5 -3 -9 1 -9 9 0 17 3 19 12 6z m390 0 c3 -5 2 -12 -3 -15 -5 -3 -9 1 -9 9 0 17 3 19 12 6z m1071 -18 c-3 -20 -22 -28 -31 -14 -4 7 0 8 10 5 9 -4 15 -3 14 2 -2 13 0 24 5 24 2 0 3 -8 2 -17z m159 -13 c-3 -5 -12 -10 -18 -10 -7 0 -6 4 3 10 19 12 23 12 15 0z m-1645 -25 c7 -9 8 -15 2 -15 -5 0 -12 7 -16 15 -3 8 -4 15 -2 15 2 0 9 -7 16 -15z m560 -20 c0 -5 -5 -3 -10 5 -5 8 -10 20 -10 25 0 6 5 3 10 -5 5 -8 10 -19 10 -25z m-520 -30 c14 -19 14 -19 -2 -6 -10 7 -18 18 -18 24 0 6 1 8 3 6 1 -2 9 -13 17 -24z m796 10 c16 -8 22 -15 14 -15 -8 1 -24 7 -34 15 -25 19 -16 19 20 0z m-988 -26 c-3 -8 -7 -3 -11 10 -4 17 -3 21 5 13 5 -5 8 -16 6 -23z m937 21 c3 -5 1 -10 -4 -10 -6 0 -11 5 -11 10 0 6 2 10 4 10 3 0 8 -4 11 -10z m-755 -30 c0 -6 -9 -2 -20 7 -11 10 -20 19 -20 21 0 1 9 -2 20 -8 11 -6 20 -15 20 -20z m2498 -4 c-7 -8 -15 -12 -17 -11 -5 6 10 25 20 25 5 0 4 -6 -3 -14z m-608 0 c0 -2 -8 -10 -17 -17 -16 -13 -17 -12 -4 4 13 16 21 21 21 13z m429 -8 c-2 -2 -17 -14 -34 -28 l-30 -25 29 32 c16 18 32 31 34 28 3 -3 3 -6 1 -7z m-2219 -9 c0 -6 7 -8 16 -5 13 5 14 4 6 -7 -7 -8 -10 -16 -7 -19 3 -3 -1 -11 -10 -18 -12 -10 -18 -10 -30 0 -8 7 -12 17 -8 23 4 6 0 8 -10 4 -9 -3 -19 -3 -21 2 -9 14 29 9 47 -7 25 -22 32 -7 8 17 -16 16 -17 21 -6 21 8 0 15 -5 15 -11z m820 1 c0 -5 -2 -10 -4 -10 -3 0 -8 5 -11 10 -3 6 -1 10 4 10 6 0 11 -4 11 -10z m-1096 -24 c-3 -9 -10 -13 -15 -10 -5 3 -3 11 4 19 15 16 19 13 11 -9z m620 8 c3 -8 2 -12 -4 -9 -6 3 -10 10 -10 16 0 14 7 11 14 -7z m403 10 c-3 -3 -12 -4 -19 -1 -8 3 -5 6 6 6 11 1 17 -2 13 -5z m51 -20 c36 -3 42 -5 42 -13 0 -14 -63 3 -68 19 -2 9 0 11 5 5 4 -5 14 -10 21 -11z m-1040 -8 c-7 -8 -17 -12 -22 -9 -4 3 -2 9 5 14 22 13 31 11 17 -5z m1152 4 c20 -6 21 -8 5 -8 -11 0 -31 4 -45 8 -20 6 -21 8 -5 8 11 0 31 -4 45 -8z m-375 -10 c3 -6 -1 -7 -9 -4 -18 7 -21 14 -7 14 6 0 13 -4 16 -10z m430 0 c-3 -5 -12 -10 -18 -10 -7 0 -6 4 3 10 19 12 23 12 15 0z m-98 -15 c0 -8 -4 -12 -9 -9 -5 3 -6 10 -3 15 9 13 12 11 12 -6z m40 -1 c-3 -3 -12 -4 -19 -1 -8 3 -5 6 6 6 11 1 17 -2 13 -5z m998 -13 c-3 -6 -11 -11 -16 -11 -5 0 -4 6 3 14 14 16 24 13 13 -3z m71 -13 c-9 -12 -16 -19 -16 -15 0 11 24 47 28 42 2 -2 -3 -14 -12 -27z m167 17 c-3 -9 -8 -14 -10 -11 -3 3 -2 9 2 15 9 16 15 13 8 -4z m-2333 -53 c0 -3 -9 3 -20 13 -11 10 -20 23 -20 28 0 6 9 0 20 -13 11 -13 20 -25 20 -28z m1896 28 c0 -12 -4 -16 -9 -11 -5 5 -6 14 -3 20 10 15 12 14 12 -9z m543 -47 c-6 -7 -15 -10 -20 -7 -13 8 -3 21 15 21 12 0 13 -4 5 -14z m-214 -12 c-9 -8 -36 -10 -30 -2 2 4 11 8 20 8 8 0 13 -3 10 -6z m-1650 -81 c3 -6 -1 -7 -9 -4 -18 7 -21 14 -7 14 6 0 13 -4 16 -10z m1156 -23 c-10 -9 -11 -8 -5 6 3 10 9 15 12 12 3 -3 0 -11 -7 -18z m34 -6 c3 -5 2 -12 -3 -15 -5 -3 -9 1 -9 9 0 17 3 19 12 6z m-1530 -20 c-3 -2 3 -10 13 -18 16 -13 15 -13 -3 -4 -43 22 -51 30 -28 28 12 0 20 -3 18 -6z m55 -11 c8 -5 11 -10 5 -10 -5 0 -17 5 -25 10 -8 5 -10 10 -5 10 6 0 17 -5 25 -10z m1897 -5 c0 -8 -4 -12 -9 -9 -5 3 -6 10 -3 15 9 13 12 11 12 -6z m-92 -54 c3 -5 2 -12 -3 -15 -5 -3 -9 1 -9 9 0 17 3 19 12 6z m-1700 -21 c10 -11 16 -20 13 -20 -3 0 -13 9 -23 20 -10 11 -16 20 -13 20 3 0 13 -9 23 -20z m1125 16 c0 -2 -7 -7 -16 -10 -8 -3 -12 -2 -9 4 6 10 25 14 25 6z m383 -101 c-3 -9 -8 -14 -10 -11 -3 3 -2 9 2 15 9 16 15 13 8 -4z"/> <path d="M2487 3440 c-38 -117 -57 -140 -128 -162 -22 -6 -39 -14 -39 -18 0 -4 20 -15 45 -24 54 -21 102 -73 111 -121 9 -52 21 -51 34 4 14 61 52 98 122 122 l53 18 -30 11 c-69 25 -84 33 -105 55 -12 13 -30 48 -40 77 -10 30 -20 47 -23 38z"/> <path d="M725 2610 c-3 -5 -1 -10 4 -10 6 0 11 5 11 10 0 6 -2 10 -4 10 -3 0 -8 -4 -11 -10z"/> <path d="M3256 2857 c3 -10 9 -15 12 -12 3 3 0 11 -7 18 -10 9 -11 8 -5 -6z"/> <path d="M2130 2966 c0 -2 8 -10 18 -17 15 -13 16 -12 3 4 -13 16 -21 21 -21 13z"/> <path d="M1950 2709 c0 -5 5 -7 10 -4 6 3 10 8 10 11 0 2 -4 4 -10 4 -5 0 -10 -5 -10 -11z"/> <path d="M1235 2883 c3 -3 0 -11 -5 -18 -7 -8 -5 -12 4 -12 14 0 16 22 3 32 -4 3 -5 2 -2 -2z"/> <path d="M361 2765 c-15 -26 -18 -41 -12 -53 8 -15 10 -15 14 -2 3 8 10 30 16 49 15 47 8 49 -18 6z"/> <path d="M2405 2774 c-89 -21 -118 -31 -175 -60 -167 -83 -306 -264 -345 -449 -19 -88 -22 -855 -4 -855 6 0 47 19 90 41 l79 41 0 298 c0 163 5 322 10 351 25 132 122 254 240 302 45 18 74 22 160 22 94 0 111 -3 159 -28 30 -15 57 -24 60 -21 3 3 6 54 6 112 0 92 -3 115 -25 164 -19 44 -32 60 -55 68 -34 12 -169 22 -200 14z m-325 -240 c0 -8 -19 -13 -24 -6 -3 5 1 9 9 9 8 0 15 -2 15 -3z"/> <path d="M2340 2170 c-41 -7 -130 -46 -130 -57 0 -2 5 -1 12 3 7 4 8 3 4 -4 -4 -7 -12 -12 -17 -12 -13 0 -34 -20 -42 -40 -5 -13 -6 -13 -6 0 -1 9 -6 5 -14 -10 -12 -22 -11 -26 7 -37 26 -15 39 -16 31 -3 -4 6 1 7 11 3 13 -5 15 -3 9 8 -5 8 -4 11 0 6 15 -13 14 -36 -1 -30 -9 3 -14 -1 -14 -13 0 -9 3 -14 7 -11 3 4 13 1 22 -6 25 -21 104 -50 95 -35 -6 10 -5 10 8 0 25 -20 78 -23 174 -8 68 10 101 21 139 45 28 17 50 36 50 41 0 4 4 12 9 17 5 5 6 3 2 -4 -12 -21 2 -15 38 19 19 17 32 37 29 45 -4 11 -8 11 -21 1 -9 -7 -13 -8 -9 -2 4 7 -5 11 -24 12 -38 1 -179 44 -174 52 2 4 -9 6 -25 5 -16 -1 -27 2 -24 7 3 4 -6 8 -19 8 -14 0 -37 2 -53 4 -16 2 -49 1 -74 -4z m-13 -35 c0 -8 -4 -12 -9 -9 -5 3 -6 10 -3 15 9 13 12 11 12 -6z m240 -191 c-3 -3 -12 -4 -19 -1 -8 3 -5 6 6 6 11 1 17 -2 13 -5z"/> <path d="M2770 2100 c0 -5 5 -10 11 -10 5 0 7 5 4 10 -3 6 -8 10 -11 10 -2 0 -4 -4 -4 -10z"/> <path d="M3540 2010 c0 -5 5 -10 11 -10 5 0 7 5 4 10 -3 6 -8 10 -11 10 -2 0 -4 -4 -4 -10z"/> <path d="M2615 730 c3 -5 8 -10 11 -10 2 0 4 5 4 10 0 6 -5 10 -11 10 -5 0 -7 -4 -4 -10z"/> <path d="M891 1984 l-92 -87 6 -76 c5 -64 41 -238 51 -250 2 -2 13 8 26 21 98 102 259 175 423 193 107 12 304 -34 359 -83 18 -17 18 -14 14 98 -4 97 -8 124 -30 172 l-27 57 -32 -30 c-18 -16 -38 -28 -45 -25 -8 3 -13 0 -11 -6 1 -7 -25 -23 -58 -37 -151 -63 -357 -17 -460 102 l-32 37 -92 -86z m83 14 c14 -16 15 -20 3 -15 -8 3 -20 1 -26 -4 -8 -6 -8 -5 -1 3 14 16 13 31 -2 22 -7 -4 -8 -3 -4 4 9 15 8 16 30 -10z m226 -114 c0 -2 -9 0 -20 6 -11 6 -20 13 -20 16 0 2 9 0 20 -6 11 -6 20 -13 20 -16z m-345 -2 c-3 -3 -11 0 -18 7 -9 10 -8 11 6 5 10 -3 15 -9 12 -12z m240 -122 c3 -6 -1 -7 -9 -4 -18 7 -21 14 -7 14 6 0 13 -4 16 -10z"/> <path d="M457 1910 c-7 -57 -39 -95 -102 -121 -30 -12 -55 -26 -55 -30 0 -4 16 -13 36 -19 56 -19 103 -66 115 -116 6 -24 15 -44 19 -44 4 0 12 18 19 40 15 52 66 102 119 118 23 7 42 16 42 20 0 4 -22 15 -49 25 -59 21 -97 63 -113 123 -7 24 -15 44 -19 44 -3 0 -9 -18 -12 -40z"/> <path d="M410 1640 c0 -5 5 -10 11 -10 5 0 7 5 4 10 -3 6 -8 10 -11 10 -2 0 -4 -4 -4 -10z"/> <path d="M3205 1473 c-3 -16 -15 -47 -26 -70 -20 -40 -51 -62 -129 -91 -23 -8 -22 -10 27 -26 57 -19 109 -69 119 -114 3 -15 9 -36 13 -47 7 -17 10 -14 20 20 6 22 20 54 30 72 21 34 86 73 121 73 35 0 18 21 -33 40 -27 10 -55 24 -63 31 -23 19 -54 85 -54 114 0 34 -18 32 -25 -2z"/> <path d="M1275 1549 c-94 -12 -193 -59 -312 -148 -18 -14 -33 -30 -33 -35 0 -24 54 -136 65 -136 7 0 18 7 25 15 6 8 46 36 88 63 157 101 387 110 530 22 18 -11 35 -20 38 -20 3 0 4 35 2 78 l-3 77 -71 37 c-102 53 -184 65 -329 47z m285 -53 c0 -2 -7 -7 -16 -10 -8 -3 -12 -2 -9 4 6 10 25 14 25 6z m-448 -84 c7 -7 8 -12 3 -12 -5 0 0 -7 11 -15 10 -8 14 -15 8 -15 -6 0 -17 7 -24 15 -7 8 -9 15 -4 15 5 0 2 5 -6 10 -8 5 -22 7 -32 4 -9 -2 -19 -1 -22 4 -8 13 53 7 66 -6z m538 -42 c-8 -5 -19 -10 -25 -10 -5 0 -3 5 5 10 8 5 20 10 25 10 6 0 3 -5 -5 -10z m-615 -80 c3 -6 -1 -7 -9 -4 -18 7 -21 14 -7 14 6 0 13 -4 16 -10z"/> <path d="M620 3185 c0 -8 2 -15 4 -15 2 0 6 7 10 15 3 8 1 15 -4 15 -6 0 -10 -7 -10 -15z"/> <path d="M3176 568 c3 -4 9 -8 15 -8 5 0 9 4 9 8 0 5 -7 9 -15 9 -8 0 -12 -4 -9 -9z"/> </g> </svg>