<?xml version="1.0" standalone="no"?>
<!DOCTYPE svg PUBLIC "-//W3C//DTD SVG 20010904//EN"
 "http://www.w3.org/TR/2001/REC-SVG-20010904/DTD/svg10.dtd">
<svg version="1.0" xmlns="http://www.w3.org/2000/svg"
 width="32.000000pt" height="32.000000pt" viewBox="0 0 32.000000 32.000000"
 preserveAspectRatio="xMidYMid meet">

<g transform="translate(0.000000,32.000000) scale(0.100000,-0.100000)"
fill="#000000" stroke="none">
<path d="M90 298 c-111 -56 -119 -196 -16 -272 20 -16 42 -21 85 -21 48 0 64
5 95 29 67 51 84 129 43 201 -24 43 -91 85 -137 85 -14 0 -46 -10 -70 -22z
m90 -44 c0 -4 -8 -12 -17 -19 -19 -14 -67 0 -57 16 6 10 74 12 74 3z m55 -34
c0 -8 -7 -14 -16 -12 -20 3 -43 -23 -34 -39 4 -6 18 -9 31 -6 31 6 30 -8 -2
-38 -27 -25 -51 -34 -39 -15 3 5 1 10 -4 10 -18 0 -13 81 6 102 19 22 58 20
58 -2z m-185 -70 c0 -5 -4 -10 -10 -10 -5 0 -10 5 -10 10 0 6 5 10 10 10 6 0
10 -4 10 -10z m240 -34 c0 -11 -19 -15 -25 -6 -3 5 1 10 9 10 9 0 16 -2 16 -4z
m-205 -46 c3 -5 1 -10 -4 -10 -6 0 -11 5 -11 10 0 6 2 10 4 10 3 0 8 -4 11
-10z m170 -10 c3 -5 1 -10 -4 -10 -6 0 -11 5 -11 10 0 6 2 10 4 10 3 0 8 -4
11 -10z"/>
</g>
</svg>
